<svg xmlns="http://www.w3.org/2000/svg" xmlns:xlink="http://www.w3.org/1999/xlink" width="1964" height="225" viewBox="0 10 1964 225">
  <defs>
    <filter id="Rectangle_1577" x="0" y="0" width="1964" height="225" filterUnits="userSpaceOnUse">
      <feOffset dy="5" input="SourceAlpha"/>
      <feGaussianBlur stdDeviation="7.5" result="blur"/>
      <feFlood flood-opacity="0.161"/>
      <feComposite operator="in" in2="blur"/>
      <feComposite in="SourceGraphic"/>
    </filter>
    <filter id="Rectangle_1447" x="1146.078" y="6" width="376.861" height="96.482" filterUnits="userSpaceOnUse">
      <feOffset dy="3" input="SourceAlpha"/>
      <feGaussianBlur stdDeviation="7.5" result="blur-2"/>
      <feFlood flood-opacity="0.129"/>
      <feComposite operator="in" in2="blur-2"/>
      <feComposite in="SourceGraphic"/>
    </filter>
  </defs>
  <g id="Group_1694" data-name="Group 1694" transform="translate(21.5 8.5)">
    <g transform="matrix(1, 0, 0, 1, -21.5, -8.5)" filter="url(#Rectangle_1577)">
      <rect id="Rectangle_1577-2" data-name="Rectangle 1577" width="1920" height="180" rx="24" transform="translate(22.5 17.5)" fill="#fff"/>
    </g>
    <path id="Rectangle_157" data-name="Rectangle 157" d="M0,0H1920a0,0,0,0,1,0,0V62a24,24,0,0,1-24,24H24A24,24,0,0,1,0,62V0A0,0,0,0,1,0,0Z" fill="#3c4bff"/>
    <path id="ic_home_24px" d="M16.571,33.964V23.035h7.286V33.964h9.107V19.393h5.464L20.214,3,2,19.393H7.464V33.964Z" transform="translate(1775.671 22)" fill="#fff"/>
    <text id="الرئيسية" transform="translate(1709 52.854)" fill="#fff" font-size="15" font-family="DroidArabicKufi, Droid Arabic Kufi"><tspan x="0" y="0">الرئيسية</tspan></text>
    <text id="اتصل_بنا" data-name="اتصل بنا" transform="translate(1542 52.854)" fill="#fff" font-size="15" font-family="DroidArabicKufi, Droid Arabic Kufi"><tspan x="0" y="0">اتصل بنا</tspan></text>
    <path id="ic_email_24px" d="M33.238,4H5.471A3.466,3.466,0,0,0,2.017,7.471L2,28.3a3.481,3.481,0,0,0,3.471,3.471H33.238A3.481,3.481,0,0,0,36.709,28.3V7.471A3.481,3.481,0,0,0,33.238,4Zm0,6.942L19.354,19.619,5.471,10.942V7.471l13.883,8.677L33.238,7.471Z" transform="translate(1606.571 26.102)" fill="#fff"/>
    <g id="Group_1663" data-name="Group 1663" transform="translate(581.017 -182.597)">
      <path id="Path_3543" data-name="Path 3543" d="M175.023,306.143a7.144,7.144,0,0,1,1.079-2.051q.463-.49.052,1.052a4.356,4.356,0,0,0,.008,2.669c.279.73.563,1.438.86,2.123s.531,1.221.74,1.632a7.406,7.406,0,0,1,.473,1.111,2.568,2.568,0,0,1,.11,1,6.4,6.4,0,0,1-.309,1.331,6.862,6.862,0,0,1-1.111,2.285,3.583,3.583,0,0,1-2.006.934q-.721.146-2.036.471t-2.868.618q-1.551.292-3.167.469a12.377,12.377,0,0,1-2.911.015,8.413,8.413,0,0,1-2.4-.653,4.946,4.946,0,0,1-1.645-1.184l.232-1.869a6.314,6.314,0,0,1-.88-5.328,14.524,14.524,0,0,1,1.632-3.536q.777-1.148,1.176-1.64a2.792,2.792,0,0,1,.521-.558c.085-.045.1.02.045.192s-.135.384-.242.638a9.585,9.585,0,0,1-.795,1.273,14.547,14.547,0,0,0-1.2,2.078,9.7,9.7,0,0,0-.807,2.5,3.854,3.854,0,0,0,.374,2.527,4.074,4.074,0,0,0,2.2,2.036,9.814,9.814,0,0,0,2.881.67,15.774,15.774,0,0,0,3.581-.249q2.235-.37,3.633-.605t2.637-.454a11.094,11.094,0,0,0,1.493-.324c.334-.11.366-.371.1-.787a18.58,18.58,0,0,1-.927-1.682,15.578,15.578,0,0,1-.987-2.729A6.349,6.349,0,0,1,175.023,306.143Zm-5.544-1.675-2.632,4.087-4.647-2.868,2.562-3.88Z" transform="translate(0 7.464)" fill="#3c4bff" stroke="#3c4bff" stroke-width="1"/>
      <path id="Path_3544" data-name="Path 3544" d="M184.037,312.873a6.993,6.993,0,0,1-.132,3.1,10.555,10.555,0,0,1-1.052,2.093,11.085,11.085,0,0,1-7.5,4.942.9.9,0,0,0-.162-.795,1.234,1.234,0,0,0-.837-.516c-.187-.037-.424-.09-.705-.155s-.6-.13-.942-.2a15.782,15.782,0,0,1-4.381-1.493,8.422,8.422,0,0,1-3-3.05q-.662-1.1-.558-1.323c.01-.02.09.085.234.316s.334.491.561.785a10.1,10.1,0,0,0,3.2,2.883,10.324,10.324,0,0,0,4.625,1.086,13.085,13.085,0,0,0,2.629-.162,10.213,10.213,0,0,0,2-.513,8.618,8.618,0,0,0,1.677-.942,11.473,11.473,0,0,0,1.58-1.351,9.114,9.114,0,0,0,1.243-1.6,12.551,12.551,0,0,0,.822-1.572,6.565,6.565,0,0,0,.374-2.153Q183.78,310.837,184.037,312.873Zm.506-2.081q0,4.676-1.381,6.337-1.734,1.118-.683-.807a8.148,8.148,0,0,0,1.124-2.955,4.122,4.122,0,0,0-.486-2.146l-.456.6-.528.469a1.488,1.488,0,0,1-.984.3,2.309,2.309,0,0,1-1.692-.708,2.552,2.552,0,0,1-.72-1.749,5.091,5.091,0,0,1,.3-1.625,11.944,11.944,0,0,1,.994-2.093,3.238,3.238,0,0,1,.88-1.3.877.877,0,0,1,.456-.354l.531-.1q.927,0,1.822,1.854a6.631,6.631,0,0,1,.6,1.939l.117.987Zm-2.19-1.822c-.057-.334-.174-.533-.351-.6a.831.831,0,0,0-.723-.309c-.439,0-.66.244-.66.735a1.079,1.079,0,0,0,.155.633.715.715,0,0,0,.566.249,1.063,1.063,0,0,0,.6-.162A2.29,2.29,0,0,0,182.353,308.971Z" transform="translate(8.621 11.724)" fill="#3c4bff" stroke="#3c4bff" stroke-width="1"/>
      <path id="Path_3545" data-name="Path 3545" d="M189.719,312.387a3.176,3.176,0,0,1,.015,2.208,10.558,10.558,0,0,1-1.052,2.093,11.085,11.085,0,0,1-7.5,4.941.9.9,0,0,0-.162-.795,1.234,1.234,0,0,0-.837-.516c-.187-.037-.424-.09-.705-.155s-.6-.13-.942-.2a15.784,15.784,0,0,1-4.381-1.493,8.42,8.42,0,0,1-3-3.05q-.662-1.1-.558-1.323c.012-.02.09.085.234.316s.334.491.561.785a10.1,10.1,0,0,0,3.2,2.883,10.324,10.324,0,0,0,4.625,1.086,13.077,13.077,0,0,0,2.629-.162,10.225,10.225,0,0,0,2-.513,8.62,8.62,0,0,0,1.677-.942,11.462,11.462,0,0,0,1.58-1.351,9.1,9.1,0,0,0,1.243-1.6,5.171,5.171,0,0,0,.675-1.682C189.216,311.806,189.45,311.629,189.719,312.387Zm4.286,1.361h-1.53a3.961,3.961,0,0,1-1.131-.249l-1.368-.633-.426.09-.633.219a3.3,3.3,0,0,0-.63-1.5l-1.53-2.529a3.473,3.473,0,0,1-.366-.822l.249-1.251a3.911,3.911,0,0,1,.471-1.483l1.366,2.131.663,1.176a5.842,5.842,0,0,0,1.8,1.308,4.808,4.808,0,0,0,2.081.678h.984Z" transform="translate(17.317 13.107)" fill="#3c4bff" stroke="#3c4bff" stroke-width="1"/>
      <path id="Path_3546" data-name="Path 3546" d="M189.506,313.176h-1.234a3.963,3.963,0,0,1-3.808-2.352,6.453,6.453,0,0,1-1.44,1.47,4.042,4.042,0,0,1-2.382.882h-.795V310.31h.81a5.553,5.553,0,0,0,2.4-.551,3,3,0,0,0,1.5-1.258l.456-.984.66-1.545.252.252-.252.66c-.047.294-.092.553-.13.78a3.767,3.767,0,0,0-.06.66,3.866,3.866,0,0,0,.852,1.236,3.339,3.339,0,0,0,2.325.75h.85Zm-2.659,4.015-1.5,2.382-2.716-1.56,1.543-2.322Z" transform="translate(31.137 13.678)" fill="#3c4bff" stroke="#3c4bff" stroke-width="1"/>
      <path id="Path_3547" data-name="Path 3547" d="M190.6,312.2c-.762.468-1.655,1.022-2.666,1.652a9.559,9.559,0,0,1-4.211,1.186v-2.9a7.687,7.687,0,0,0,5.158-1.6q-1.955-2.075-3.484-2.073a2.888,2.888,0,0,0-1.545.324.712.712,0,0,1-.324.087.155.155,0,0,1-.174-.174.912.912,0,0,1,.087-.324l.882-2.013q.251-.561,2.455-1.059a18.359,18.359,0,0,1,4.147-.5,12.281,12.281,0,0,1,3.853.645,11.935,11.935,0,0,1,2.34,1.059c.391.267.586.466.586.6a1.181,1.181,0,0,1-.174.471l-.972,1.749a37.142,37.142,0,0,0-3.5,1.617q1.159,1.1,4.794,1.1v2.866a14.412,14.412,0,0,1-3.912-.324A13.442,13.442,0,0,1,190.6,312.2Zm3.192-4.059a8.591,8.591,0,0,0-4.762-.558,12.761,12.761,0,0,1,2.305,1.779Q192.267,308.876,193.8,308.141Z" transform="translate(36.375 11.935)" fill="#3c4bff" stroke="#3c4bff" stroke-width="1"/>
      <path id="Path_3548" data-name="Path 3548" d="M192.838,303.857l-1.47,2.4-2.676-1.63,1.528-2.31Zm2.25,8.146a13.323,13.323,0,0,1-.486,3.264,8.731,8.731,0,0,1-.531,1.675l-.483,1a1.6,1.6,0,0,1-.822.366,5.362,5.362,0,0,1-1.812.324h-1.4v-2.866h2.631c.384-.06.75-.11,1.1-.147a.829.829,0,0,0,.72-.633,7.013,7.013,0,0,0-1.191-3.691l-1.161-1.5.471-1.293.132-.222a1.81,1.81,0,0,1,.351-.675l.06-.06.12-.132a5.237,5.237,0,0,1,1.4,1.662A5.819,5.819,0,0,1,195.088,312Zm1.749-8.146-1.5,2.4-2.721-1.63,1.575-2.31Z" transform="translate(44.331 8.221)" fill="#3c4bff" stroke="#3c4bff" stroke-width="1"/>
      <path id="Path_3549" data-name="Path 3549" d="M194.421,300.586a5.131,5.131,0,0,1,0-.927c.025-.107.08-.117.169-.03a10.4,10.4,0,0,1,.845,2.721,16.811,16.811,0,0,1,.521,3.424q-.045,1.032-.2,3.536c-.1,1.672-.152,2.953-.14,3.845a7.2,7.2,0,0,0,1.757,4.787q1.547,1.551,5.241,1.9v2.866a8.482,8.482,0,0,1-5.639-2.726q-1.944-2.273-2.622-7.683a38.789,38.789,0,0,1-.082-6.344Q194.457,301.35,194.421,300.586Z" transform="translate(52.546 4.127)" fill="#3c4bff" stroke="#3c4bff" stroke-width="1"/>
      <path id="Path_3550" data-name="Path 3550" d="M201.5,318.991l-1.513,2.382-2.706-1.617,1.56-2.325Zm1.722-10.042a13.787,13.787,0,0,1-.513,3.264,14.008,14.008,0,0,1-.5,1.617l-.486,1.059-.633.279a5.451,5.451,0,0,1-2,.411h-1.338v-2.866h1.6q2.441,0,2.764-.78a10.352,10.352,0,0,0-.419-2.1,5.1,5.1,0,0,0-.755-1.587l-1.179-1.5.474-1.293.13-.249.164-.354.366-.486a4.534,4.534,0,0,1,1.425,1.662,10.167,10.167,0,0,1,.645,1.523A4.424,4.424,0,0,1,203.222,308.949Zm2.25,10.042-1.515,2.382-2.766-1.617,1.59-2.325Z" transform="translate(57.147 11.274)" fill="#3c4bff" stroke="#3c4bff" stroke-width="1"/>
      <path id="Path_3551" data-name="Path 3551" d="M208.75,310.278a4.1,4.1,0,0,1-.464,1.2,2.442,2.442,0,0,1-.72.508l-6.923,3.352V315c0-.513.424-1.037,1.266-1.565q.3-.168,1.979-.907-2.587-.5-3.244-1.595a1.322,1.322,0,0,1-.217-.743,4.774,4.774,0,0,1,.436-1.592l.551-.934.74-.937q1.488-1.809,2.721-1.812a1.38,1.38,0,0,1,1.059.508,1.623,1.623,0,0,1,.453,1.087,3.868,3.868,0,0,1-.768,1.812,2.2,2.2,0,0,0-1.759-1.179,2.268,2.268,0,0,0-1.43.573,2.135,2.135,0,0,0-.548,1.376c0,.421.454.835,1.358,1.236a6.621,6.621,0,0,0,2.706.605,4.963,4.963,0,0,0,1.817-.3A5.067,5.067,0,0,0,208.75,310.278Z" transform="translate(61.841 12.109)" fill="#3c4bff" stroke="#3c4bff" stroke-width="1"/>
      <path id="Path_3552" data-name="Path 3552" d="M210.78,302.566a1.876,1.876,0,0,1-.825,1.824l-4.994,2.3-.067-.112,2.694-2.245a1.849,1.849,0,0,1-1.029-1.66A1.982,1.982,0,0,1,208,300.7a2.106,2.106,0,0,1,.588-.162,2.2,2.2,0,0,1,1.552.6A1.892,1.892,0,0,1,210.78,302.566Zm-1.134-.027a.893.893,0,0,0-.331-.72,1.1,1.1,0,0,0-.728-.279q-.923,0-.925,1.116a.909.909,0,0,0,1.044,1.014.924.924,0,0,0,.593-.381A1.137,1.137,0,0,0,209.646,302.539Z" transform="translate(68.505 5.571)" fill="#3c4bff" stroke="#3c4bff" stroke-width="1"/>
      <path id="Path_3553" data-name="Path 3553" d="M219.5,312.387a3.2,3.2,0,0,1,.015,2.208,10.686,10.686,0,0,1-1.052,2.093,11.1,11.1,0,0,1-7.5,4.941.9.9,0,0,0-.159-.795,1.245,1.245,0,0,0-.837-.516c-.189-.037-.424-.09-.708-.155s-.6-.13-.942-.2a15.793,15.793,0,0,1-4.378-1.493,8.4,8.4,0,0,1-3-3.05q-.662-1.1-.561-1.323c.012-.02.09.085.237.316s.331.491.558.785a10.075,10.075,0,0,0,3.2,2.883,10.3,10.3,0,0,0,4.622,1.086,13.115,13.115,0,0,0,2.632-.162,10.2,10.2,0,0,0,2-.513,8.55,8.55,0,0,0,1.677-.942,11.18,11.18,0,0,0,1.58-1.351,9.11,9.11,0,0,0,1.243-1.6,5.121,5.121,0,0,0,.678-1.682C218.995,311.806,219.226,311.629,219.5,312.387Zm4.286,1.361h-1.533a3.977,3.977,0,0,1-1.131-.249l-1.368-.633-.426.09-.63.219a3.3,3.3,0,0,0-.63-1.5l-1.533-2.529a3.578,3.578,0,0,1-.366-.822l.249-1.251a3.959,3.959,0,0,1,.471-1.483l1.368,2.131.66,1.176a5.843,5.843,0,0,0,1.8,1.308,4.818,4.818,0,0,0,2.081.678h.987Z" transform="translate(61.743 13.107)" fill="#3c4bff" stroke="#3c4bff" stroke-width="1"/>
      <path id="Path_3554" data-name="Path 3554" d="M217.781,300.586q-.037.766.145,5.373a39.481,39.481,0,0,1-.08,6.344q-.677,5.413-2.626,7.683a8.374,8.374,0,0,1-5.49,2.741l-.147-2.866q3.689-.366,5.241-1.919a7.19,7.19,0,0,0,1.757-4.787q.015-1.338-.137-3.845c-.1-1.67-.172-2.848-.2-3.536a16.857,16.857,0,0,1,.523-3.424,10.332,10.332,0,0,1,.842-2.721q.134-.131.172.03A5.144,5.144,0,0,1,217.781,300.586Zm2.507,22.141H219.8a4.666,4.666,0,0,1-3.616-1.692,3.768,3.768,0,0,1-.648-.977,6.953,6.953,0,0,1-.366-1.4l-.219.705q-.075.351,1.734-1.647l.264.6a2.435,2.435,0,0,0,.855.882l1.014.516.483.117.6.03h.384Z" transform="translate(75.501 4.127)" fill="#3c4bff" stroke="#3c4bff" stroke-width="1"/>
      <path id="Path_3555" data-name="Path 3555" d="M221.969,300.586q-.034.766.147,5.373a39.768,39.768,0,0,1-.08,6.344q-.68,5.413-2.626,7.683a8.527,8.527,0,0,1-5.639,2.741l.015-2.866q3.678-.366,5.228-1.919a7.2,7.2,0,0,0,1.757-4.787q.015-1.338-.14-3.845t-.2-3.536a16.854,16.854,0,0,1,.523-3.424,10.3,10.3,0,0,1,.845-2.721c.087-.087.147-.077.169.03A5.156,5.156,0,0,1,221.969,300.586Z" transform="translate(81.749 4.127)" fill="#3c4bff" stroke="#3c4bff" stroke-width="1"/>
      <path id="Path_3556" data-name="Path 3556" d="M225.4,309.59c-.169-.322-.431-.842-.795-1.557a3.894,3.894,0,0,1,.354-3.322,2.484,2.484,0,0,1,2.146-.987,6.679,6.679,0,0,1,3.207,1.4q2.187,1.484,2.188,2.5a18.919,18.919,0,0,1-.792,2.47q-.826.221-4.249,1.425c.057.952-.025,1.428-.252,1.428s-.416-.359-.6-1.074a9.239,9.239,0,0,0-2.983,1.7,4.21,4.21,0,0,0-1.266,3.147,24.649,24.649,0,0,0,.825,4.807q.471,2,.954,4.029a18.716,18.716,0,0,1,.471,5.35q-.221,1.648-.381,1.647c-.08,0-.152-.538-.222-1.617a23.969,23.969,0,0,0-.351-2.94q-2.119-7.835-2.118-10.5a11.587,11.587,0,0,1,1.014-5.41A5.822,5.822,0,0,1,225.4,309.59Zm3.838-1.5q0-.336-1.273-.91a5.318,5.318,0,0,0-2.066-.573c-.354,0-.5.072-.441.219q.254.662,1.074,2.25A27.278,27.278,0,0,0,229.235,308.09Zm-2.6,3.868.927-.162c0,.443.319.887.957,1.338a5.815,5.815,0,0,0,2.5.531h1.116v2.866h-1.455a5.531,5.531,0,0,1-2.435-.543,2.975,2.975,0,0,1-1.55-1.734,3.769,3.769,0,0,1-.222-1.251l.03-.543A1.211,1.211,0,0,1,226.631,311.957Z" transform="translate(93.325 10.324)" fill="#3c4bff" stroke="#3c4bff" stroke-width="1"/>
      <path id="Path_3557" data-name="Path 3557" d="M235.414,317.1H234.18a3.966,3.966,0,0,1-3.81-2.352,6.4,6.4,0,0,1-1.44,1.47,4.042,4.042,0,0,1-2.382.882h-.792v-2.866h.807a5.555,5.555,0,0,0,2.4-.551,2.99,2.99,0,0,0,1.5-1.258l.456-.984.663-1.545.249.252-.249.66c-.05.294-.095.553-.132.78a3.757,3.757,0,0,0-.06.66,3.864,3.864,0,0,0,.852,1.236,3.339,3.339,0,0,0,2.325.75h.852Zm-4.7-12.2-1.5,2.323-2.689-1.587,1.557-2.293Zm3.97,0-1.5,2.323-2.691-1.587,1.485-2.293Z" transform="translate(99.628 9.753)" fill="#3c4bff" stroke="#3c4bff" stroke-width="1"/>
      <path id="Path_3558" data-name="Path 3558" d="M239.137,317.225H237.9a3.963,3.963,0,0,1-3.808-2.352,6.452,6.452,0,0,1-1.44,1.47,4.048,4.048,0,0,1-2.382.882h-.795v-2.866h.81a5.535,5.535,0,0,0,2.395-.551,3,3,0,0,0,1.5-1.258l.456-.984.66-1.545.252.252-.252.66c-.047.294-.092.553-.132.78a4.018,4.018,0,0,0-.057.66,3.828,3.828,0,0,0,.852,1.236,3.337,3.337,0,0,0,2.322.75h.852Zm-1.677-12.452-1.5,2.41-2.721-1.617,1.575-2.308Z" transform="translate(105.182 9.629)" fill="#3c4bff" stroke="#3c4bff" stroke-width="1"/>
      <path id="Path_3559" data-name="Path 3559" d="M245.068,319.533a5.49,5.49,0,0,1-.633,2.763,8.032,8.032,0,0,1-2.41,2.4,10.051,10.051,0,0,1-6.6,2.161v-2.866a10.623,10.623,0,0,0,8.734-3.618.747.747,0,0,0,.189-.4c0-.127-.145-.329-.441-.6a27.689,27.689,0,0,0-3.838-2.734Q237,314.723,236.042,314a15.4,15.4,0,0,1-3.426-3.367,1.262,1.262,0,0,0-.4-.219c-.252-.107-.374-.207-.374-.294q0-3.63.91-4.456,2.3-2.045,9.836-5.44Q250.2,296.8,252.67,296.8a1.351,1.351,0,0,1,.984.287,1.37,1.37,0,0,1,.279.977q0,1.63-1.939,4.014c-.464.528-.937,1.072-1.428,1.632a11.18,11.18,0,0,0-1.545,2.175c-.184.371-.3.558-.339.558-.057,0-.027-.249.092-.75a5.875,5.875,0,0,1,.628-1.44,6.564,6.564,0,0,1,.75-1.236,32.223,32.223,0,0,0,2.589-3.2.5.5,0,0,0,.03-.162q0-.471-1.221-.471-1.925,0-9.113,3.279a53.082,53.082,0,0,0-9.853,5.44c-.117.107-.1.2.045.279l2.572,1.191c.561.257.84.476.84.663,0,.167-.227.249-.675.249a4.665,4.665,0,0,1-.825-.087,13.717,13.717,0,0,0,3.706,2.821,47.093,47.093,0,0,1,4.588,2.9Q245.066,317.707,245.068,319.533Z" transform="translate(108.703 0)" fill="#3c4bff" stroke="#3c4bff" stroke-width="1"/>
      <path id="Path_3560" data-name="Path 3560" d="M257.917,306.143A7.131,7.131,0,0,1,259,304.092q.463-.49.05,1.052a4.356,4.356,0,0,0,.007,2.669c.282.73.566,1.438.86,2.123s.533,1.221.743,1.632a7.37,7.37,0,0,1,.471,1.111,2.57,2.57,0,0,1,.11,1,6.088,6.088,0,0,1-.309,1.331,6.868,6.868,0,0,1-1.109,2.285,3.591,3.591,0,0,1-2.008.934c-.478.1-1.159.254-2.033.471s-1.834.421-2.868.618-2.091.351-3.17.469a12.378,12.378,0,0,1-2.911.015,8.437,8.437,0,0,1-2.4-.653,5,5,0,0,1-1.645-1.184l.234-1.869a6.325,6.325,0,0,1-.882-5.328,14.612,14.612,0,0,1,1.635-3.536q.777-1.148,1.174-1.64a2.958,2.958,0,0,1,.521-.558c.085-.045.1.02.047.192s-.137.384-.244.638a9.493,9.493,0,0,1-.792,1.273,14.786,14.786,0,0,0-1.2,2.078,9.893,9.893,0,0,0-.807,2.5,3.87,3.87,0,0,0,.374,2.527,4.091,4.091,0,0,0,2.2,2.036,9.848,9.848,0,0,0,2.883.67,15.754,15.754,0,0,0,3.578-.249c1.493-.247,2.7-.449,3.633-.605s1.812-.307,2.639-.454a10.914,10.914,0,0,0,1.49-.324q.5-.164.1-.787t-.927-1.682a15.81,15.81,0,0,1-.984-2.729A6.345,6.345,0,0,1,257.917,306.143Zm-5.542-1.675-2.634,4.087-4.645-2.868,2.559-3.88Z" transform="translate(123.674 7.464)" fill="#3c4bff" stroke="#3c4bff" stroke-width="1"/>
      <path id="Path_3561" data-name="Path 3561" d="M259.1,301.605q-.037.766.145,5.375a39.481,39.481,0,0,1-.08,6.344q-.677,5.409-3.182,7.638a12.142,12.142,0,0,1-6.92,2.711,15.527,15.527,0,0,0,5.53-3.16,9.968,9.968,0,0,0,3.307-6.337q.015-1.338-.137-3.845t-.2-3.536a17.008,17.008,0,0,1,.521-3.426,10.4,10.4,0,0,1,.845-2.719q.135-.135.172.03A5.7,5.7,0,0,1,259.1,301.605Zm-5.036,23.908.03.234c0,.491-.434.832-1.3,1.029l-.207.015-.309-.03h-.232l-.194.015a.624.624,0,0,0-.232.207l-.15-.147.177-.234a2.872,2.872,0,0,1,.693-.237,1.272,1.272,0,0,0,.763-.192l.03-.162a.316.316,0,0,0-.087-.117.835.835,0,0,1-.618-.483c-.077-.187.027-.478.317-.875s.573-.6.86-.6l-.06.591a1.1,1.1,0,0,0-.426.117l-.177.264c0,.077.172.177.516.294C253.781,325.244,253.98,325.346,254.06,325.513Z" transform="translate(134.396 5.65)" fill="#3c4bff" stroke="#3c4bff" stroke-width="1"/>
      <path id="Path_3562" data-name="Path 3562" d="M293.235,315.38v.19a10.574,10.574,0,0,1-.346,2.273,8.44,8.44,0,0,1-.862,2.315q-.9,1.237-4.762,2.542-1.839.636-2.985.914a38.333,38.333,0,0,1-4.1.675,40.527,40.527,0,0,1-4.543.249l-2.19-.027-3.367-.134a19.7,19.7,0,0,1-3.1-.249q.269-1.734-4.615-2.853a40.669,40.669,0,0,1-8.572-2.9,25.831,25.831,0,0,1-4.837-2.763,61.529,61.529,0,0,0,15.32,5.146q1.177.176,2.537.336c.9.11,1.914.207,3.02.3.735,0,1.308.007,1.719.027q3.177.135,3.618.135,2.927,0,5.081-.162a29.067,29.067,0,0,0,4.226-.633,22.281,22.281,0,0,0,5.2-1.692q1.529-.822,1.749-1.4c0-.2-.307-.431-.925-.705l-.309-.09-.6-.192-1.206-.292q-1.118-.28-3.058-.942-1.779-.763-1.941-1.425l-.027-.264a18.533,18.533,0,0,1,.254-2.208,7.832,7.832,0,0,1,.481-2.041,8.255,8.255,0,0,1,3.451-3.912,7.563,7.563,0,0,1,3.882-1.233,2.127,2.127,0,0,1,1.488.439l.232.663.092,1.014a2.228,2.228,0,0,1-.312,1.47l-.543-.162-.513-.162-1.149-.087a6.5,6.5,0,0,0-4.189,1.7q-1.622,1.368-1.53,1.971c.107.508.835.979,2.176,1.411l3.588,1.074Q292.818,314.334,293.235,315.38Z" transform="translate(134.23 11.285)" fill="#3c4bff" stroke="#3c4bff" stroke-width="1"/>
      <path id="Path_3563" data-name="Path 3563" d="M267.354,300.586a5.73,5.73,0,0,1,0-.927q.037-.161.172-.03a10.4,10.4,0,0,1,.845,2.721,16.992,16.992,0,0,1,.521,3.424q-.045,1.032-.2,3.536c-.1,1.672-.152,2.953-.14,3.845a7.2,7.2,0,0,0,1.757,4.787q1.548,1.551,5.238,1.9v2.866a8.47,8.47,0,0,1-5.637-2.726q-1.948-2.273-2.624-7.683a39.169,39.169,0,0,1-.08-6.344Q267.393,301.35,267.354,300.586Z" transform="translate(161.361 4.127)" fill="#3c4bff" stroke="#3c4bff" stroke-width="1"/>
      <path id="Path_3564" data-name="Path 3564" d="M274.436,318.991l-1.513,2.382-2.706-1.617,1.56-2.325Zm1.719-10.042a17.321,17.321,0,0,1-1.014,4.882l-.483,1.059-.633.279a5.453,5.453,0,0,1-2,.411h-1.336v-2.866h1.6q2.441,0,2.764-.78a10.34,10.34,0,0,0-.419-2.1,5.15,5.15,0,0,0-.757-1.587l-1.176-1.5.471-1.293.132-.249.162-.354.369-.486a4.534,4.534,0,0,1,1.425,1.662,10.694,10.694,0,0,1,.645,1.523A4.489,4.489,0,0,1,276.155,308.949Zm2.253,10.042-1.518,2.382-2.764-1.617,1.59-2.325Z" transform="translate(165.962 11.274)" fill="#3c4bff" stroke="#3c4bff" stroke-width="1"/>
      <path id="Path_3565" data-name="Path 3565" d="M286.14,314.232a16.516,16.516,0,0,1-2.4,8.667q-2.392,3.992-5.38,3.992a6.993,6.993,0,0,1-2.572-.471c-.3-.11-.62-.232-.949-.376s-.8-.389-1.433-.74l.411-.324,1.206.381.72.1h.513a7,7,0,0,0,2.868-.735,8.8,8.8,0,0,0,2.634-1.779,13.948,13.948,0,0,0,2.313-3.19,7.423,7.423,0,0,0,1.052-3.484v-.456l-.072-.369-.087-.381-.252-.411-.456.6-.528.469a1.49,1.49,0,0,1-.987.294,2.3,2.3,0,0,1-1.69-.705,2.541,2.541,0,0,1-.72-1.75,5.15,5.15,0,0,1,.3-1.625,12.423,12.423,0,0,1,.994-2.1,3.279,3.279,0,0,1,.882-1.293.851.851,0,0,1,.456-.351l.531-.1q.923,0,1.821,1.854a6.472,6.472,0,0,1,.6,1.941l.12.984Zm-6.292-10.411.057.354c0,.725-.643,1.236-1.939,1.53l-.309.03-.456-.06h-.351l-.279.03a.843.843,0,0,0-.354.307l-.222-.219.264-.354a4.034,4.034,0,0,1,1.017-.336,1.976,1.976,0,0,0,1.161-.294l.042-.252a.407.407,0,0,0-.132-.162,1.233,1.233,0,0,1-.927-.735c-.117-.272.04-.708.474-1.3s.857-.89,1.276-.89l-.087.867a1.7,1.7,0,0,0-.633.189l-.262.384c0,.127.252.274.765.439C279.442,303.41,279.741,303.567,279.848,303.821Zm3.808,8.44c-.057-.334-.174-.533-.351-.6a.823.823,0,0,0-.72-.309c-.441,0-.663.247-.663.735a1.085,1.085,0,0,0,.155.633.7.7,0,0,0,.566.249,1.07,1.07,0,0,0,.6-.162A2.367,2.367,0,0,0,283.656,312.261Z" transform="translate(170.724 6.963)" fill="#3c4bff" stroke="#3c4bff" stroke-width="1"/>
      <g id="Group_1662" data-name="Group 1662" transform="translate(462.848 304.23)">
        <path id="Path_3566" data-name="Path 3566" d="M286.8,301.812a1.87,1.87,0,0,1-.825,1.822l-4.994,2.3-.065-.112,2.694-2.243a1.851,1.851,0,0,1-1.029-1.662,2.369,2.369,0,0,1,2.026-2.131,2.2,2.2,0,0,1,1.552.593A1.894,1.894,0,0,1,286.8,301.812Zm-1.134-.03a.893.893,0,0,0-.331-.72,1.092,1.092,0,0,0-.728-.279q-.923,0-.924,1.116a.9.9,0,0,0,1.637.633A1.133,1.133,0,0,0,285.669,301.782Z" transform="translate(-280.919 -299.784)" fill="#3c4bff" stroke="#3c4bff" stroke-width="1"/>
      </g>
      <path id="Path_3567" data-name="Path 3567" d="M297.2,311.5a5.624,5.624,0,0,1,.022,1.067,10.723,10.723,0,0,1-.242,1.682,16.272,16.272,0,0,1-.6,2.051,10.554,10.554,0,0,1-1.089,2.155,11.378,11.378,0,0,1-7.675,5.059.943.943,0,0,0-.167-.817,1.274,1.274,0,0,0-.862-.523c-.184-.037-.426-.092-.72-.162s-.615-.137-.969-.2a16.175,16.175,0,0,1-4.486-1.53,8.616,8.616,0,0,1-3.072-3.115c-.451-.758-.643-1.211-.571-1.368.008-.02.09.087.239.324s.346.5.583.807a10.343,10.343,0,0,0,3.269,2.955,10.517,10.517,0,0,0,4.742,1.116,13.51,13.51,0,0,0,2.691-.169,10.717,10.717,0,0,0,2.043-.521,8.979,8.979,0,0,0,1.727-.969,11.421,11.421,0,0,0,1.617-1.383,9.213,9.213,0,0,0,1.271-1.632,5.111,5.111,0,0,0,.693-1.734,6.575,6.575,0,0,0-.075-3.02,13.181,13.181,0,0,1-.486-2.567,6.552,6.552,0,0,1,0-1.874,6.218,6.218,0,0,1,.6-1.523c.3-.608.546-.944.72-1.014s.242-.025.194.132a6.034,6.034,0,0,0-.092,3.4Q296.956,309.951,297.2,311.5Z" transform="translate(175.716 11.564)" fill="#3c4bff" stroke="#3c4bff" stroke-width="1"/>
      <path id="Path_3568" data-name="Path 3568" d="M324.841,310.579h-.5a17.079,17.079,0,0,0-4.777.456q-.942.28-.827.72l2.076.837,1.675.72a4.224,4.224,0,0,1,2.19,1.782l.03.189a14.932,14.932,0,0,1-.346,1.881,6.394,6.394,0,0,1-.815,2.25,5.929,5.929,0,0,1-2.263,1.56,21.4,21.4,0,0,1-5.485,1.939,39.229,39.229,0,0,1-8.677.957l-2.19-.045-3.364-.117-3.117-.264q.426-1.678-4.618-2.7a31.948,31.948,0,0,1-8.632-2.925,18.222,18.222,0,0,1-4.351-2.8l4.249,2.1a42.982,42.982,0,0,0,11.675,3.087,76.156,76.156,0,0,0,8.963.675q3.473,0,5.8-.192a39.08,39.08,0,0,0,4.211-.558,27.9,27.9,0,0,0,3.125-.765,13.477,13.477,0,0,0,2.293-.969c1.039-.548,1.62-1.034,1.734-1.455,0-.234-.336-.553-1.014-.954a10.687,10.687,0,0,0-1.368-.663l-2.629-.927a3.909,3.909,0,0,1-.957-.566.837.837,0,0,1-.354-.611,3.019,3.019,0,0,1,.082-.648,10.052,10.052,0,0,1,.376-1.159,13.579,13.579,0,0,1,.793-1.824,4.554,4.554,0,0,1,1.557-1.089,8.126,8.126,0,0,1,3.514-.792h1.944Z" transform="translate(181.824 16.275)" fill="#3c4bff" stroke="#3c4bff" stroke-width="1"/>
      <path id="Path_3569" data-name="Path 3569" d="M308.7,314.041a10.054,10.054,0,0,1-.9,3.631,12.063,12.063,0,0,1-1.074,2.19,4.4,4.4,0,0,1-1.719.984l-1.366.384-1.677.087h-3.631v-2.866l3.409-.06a8.951,8.951,0,0,0,4.029-.633,2.686,2.686,0,0,0,1.278-1.293,1.649,1.649,0,0,0,.207-.792v-.486l-.179-.5-.042-.264-.087-.219-.282-.5-.513.969a1.852,1.852,0,0,1-.439.84,2.984,2.984,0,0,1-2.268.954,3.638,3.638,0,0,1-2.043-.668,2.565,2.565,0,0,1-1-2.3,6.616,6.616,0,0,1,.232-1.7,14.948,14.948,0,0,1,.75-2.036,8.3,8.3,0,0,1,1.971-2.868,1.669,1.669,0,0,1,.765-.279,1.475,1.475,0,0,1,.69.162,2.837,2.837,0,0,1,.822.441l.516.528a7.93,7.93,0,0,1,1.969,3.309A8.549,8.549,0,0,1,308.7,314.041Zm-3.367-11.969-1.5,2.382-2.719-1.617,1.543-2.322Zm.795,10.541v-.351l-.075-.162a4.086,4.086,0,0,0-1.263-1.383,4.862,4.862,0,0,0-.9-.471,2.238,2.238,0,0,0-.778-.147,1.981,1.981,0,0,0-1.009.471,1.449,1.449,0,0,0-.4,1.116c0,.287.257.6.765.927a4.7,4.7,0,0,0,1.809.384A5.553,5.553,0,0,0,306.129,312.613Z" transform="translate(207.915 5.537)" fill="#3c4bff" stroke="#3c4bff" stroke-width="1"/>
      <path id="Path_3570" data-name="Path 3570" d="M342.47,310.579h-.5a17.1,17.1,0,0,0-4.777.456q-.942.28-.825.72l2.073.837,1.677.72a4.224,4.224,0,0,1,2.19,1.782l.03.189a14.935,14.935,0,0,1-.346,1.881,6.443,6.443,0,0,1-.815,2.25,5.928,5.928,0,0,1-2.263,1.56,21.4,21.4,0,0,1-5.485,1.939,39.229,39.229,0,0,1-8.677.957l-2.19-.045-3.364-.117-3.117-.264q.426-1.678-4.617-2.7a31.946,31.946,0,0,1-8.632-2.925,18.225,18.225,0,0,1-4.351-2.8l4.249,2.1A42.981,42.981,0,0,0,314.4,320.21a76.156,76.156,0,0,0,8.963.675q3.473,0,5.8-.192a39.079,39.079,0,0,0,4.211-.558,27.9,27.9,0,0,0,3.125-.765,13.476,13.476,0,0,0,2.293-.969q1.559-.822,1.734-1.455c0-.234-.336-.553-1.014-.954a10.677,10.677,0,0,0-1.368-.663l-2.629-.927a3.862,3.862,0,0,1-.957-.566.837.837,0,0,1-.354-.611,3.176,3.176,0,0,1,.08-.648,10.778,10.778,0,0,1,.379-1.159,13.6,13.6,0,0,1,.792-1.824,4.554,4.554,0,0,1,1.557-1.089,8.125,8.125,0,0,1,3.514-.792h1.944Z" transform="translate(208.125 16.275)" fill="#3c4bff" stroke="#3c4bff" stroke-width="1"/>
      <path id="Path_3571" data-name="Path 3571" d="M321.823,312.143a12.6,12.6,0,0,1-.543,3.207,6.955,6.955,0,0,1-1.236,2.734l-1.63.5c-.3.057-.576.1-.81.14a5.267,5.267,0,0,1-.72.05h-.912v-2.866H317.3q2.987,0,3.279-.78a3.8,3.8,0,0,0-.095-.9,9.614,9.614,0,0,0-.391-1.116,5.16,5.16,0,0,0-.954-1.677l-1.368-1.5a3.186,3.186,0,0,1,.147-.521,3.73,3.73,0,0,1,.309-.655l.366-.72.426-.486a4.827,4.827,0,0,1,1.749,1.662,7.094,7.094,0,0,1,.8,1.463A4.14,4.14,0,0,1,321.823,312.143Zm-1.086-8.4-1.5,2.412-2.706-1.587,1.53-2.352Z" transform="translate(234.225 8.08)" fill="#3c4bff" stroke="#3c4bff" stroke-width="1"/>
      <path id="Path_3572" data-name="Path 3572" d="M335.608,313.935a6.958,6.958,0,0,1-.132,3.1,10.691,10.691,0,0,1-1.052,2.093,11.1,11.1,0,0,1-7.5,4.941.9.9,0,0,0-.162-.795,1.24,1.24,0,0,0-.84-.516c-.184-.037-.419-.09-.705-.155s-.6-.13-.939-.2a15.774,15.774,0,0,1-4.381-1.493,8.4,8.4,0,0,1-3-3.05q-.662-1.1-.558-1.323c.01-.02.087.085.237.317s.331.491.556.785a10.147,10.147,0,0,0,3.2,2.883,10.339,10.339,0,0,0,4.625,1.087,13.265,13.265,0,0,0,2.631-.162,10.213,10.213,0,0,0,2-.513,8.465,8.465,0,0,0,1.675-.942,11.215,11.215,0,0,0,1.582-1.351,9.214,9.214,0,0,0,1.241-1.6,12.277,12.277,0,0,0,.825-1.572,6.565,6.565,0,0,0,.374-2.153Q335.351,311.9,335.608,313.935Zm.506-2.081q0,4.676-1.38,6.337-1.734,1.118-.685-.807a8.1,8.1,0,0,0,1.124-2.955,4.072,4.072,0,0,0-.483-2.146l-.456.6-.528.471a1.5,1.5,0,0,1-.987.294,2.307,2.307,0,0,1-1.69-.708,2.541,2.541,0,0,1-.72-1.749,5.147,5.147,0,0,1,.3-1.625,12.318,12.318,0,0,1,.994-2.093,3.269,3.269,0,0,1,.882-1.3.851.851,0,0,1,.456-.351l.531-.1q.923,0,1.822,1.854a6.492,6.492,0,0,1,.6,1.939l.12.987Zm-2.19-1.822c-.057-.334-.177-.533-.351-.6a.83.83,0,0,0-.72-.309c-.441,0-.663.244-.663.735a1.1,1.1,0,0,0,.155.633.715.715,0,0,0,.566.249,1.069,1.069,0,0,0,.6-.162A2.292,2.292,0,0,0,333.923,310.032Z" transform="translate(234.754 13.308)" fill="#3c4bff" stroke="#3c4bff" stroke-width="1"/>
      <path id="Path_3573" data-name="Path 3573" d="M333.82,317.1h-1.234a3.968,3.968,0,0,1-3.81-2.352,6.4,6.4,0,0,1-1.44,1.47,4.036,4.036,0,0,1-2.382.882h-.792v-2.866h.807a5.554,5.554,0,0,0,2.4-.551,3,3,0,0,0,1.5-1.258l.453-.984.663-1.545.249.252-.249.66c-.05.294-.092.553-.132.78a3.761,3.761,0,0,0-.057.66,3.824,3.824,0,0,0,.85,1.236,3.343,3.343,0,0,0,2.325.75h.852Zm-4.7-12.2-1.5,2.323-2.689-1.587,1.557-2.293Zm3.97,0-1.5,2.323-2.691-1.587,1.485-2.293Z" transform="translate(246.442 9.753)" fill="#3c4bff" stroke="#3c4bff" stroke-width="1"/>
      <path id="Path_3574" data-name="Path 3574" d="M338.249,314.041a10.052,10.052,0,0,1-.9,3.631,12.074,12.074,0,0,1-1.074,2.19,4.4,4.4,0,0,1-1.719.984l-1.368.384-1.675.087h-3.631v-2.866l3.409-.06a8.951,8.951,0,0,0,4.029-.633,2.7,2.7,0,0,0,1.278-1.293,1.651,1.651,0,0,0,.207-.792v-.486l-.179-.5-.042-.264-.087-.219-.282-.5-.513.969a1.83,1.83,0,0,1-.441.84,2.979,2.979,0,0,1-2.265.954,3.638,3.638,0,0,1-2.043-.668,2.56,2.56,0,0,1-1-2.3,6.612,6.612,0,0,1,.232-1.7,14.627,14.627,0,0,1,.75-2.036,8.3,8.3,0,0,1,1.971-2.868,1.669,1.669,0,0,1,.765-.279,1.476,1.476,0,0,1,.69.162,2.869,2.869,0,0,1,.822.441l.516.528a7.929,7.929,0,0,1,1.969,3.309A8.55,8.55,0,0,1,338.249,314.041Zm-3.367-11.969-1.5,2.382-2.719-1.617,1.542-2.322Zm.792,10.541v-.351l-.072-.162a4.068,4.068,0,0,0-1.266-1.383,4.847,4.847,0,0,0-.9-.471,2.237,2.237,0,0,0-.778-.147,1.972,1.972,0,0,0-1.009.471,1.449,1.449,0,0,0-.4,1.116c0,.287.257.6.765.927a4.7,4.7,0,0,0,1.809.384A5.529,5.529,0,0,0,335.675,312.613Z" transform="translate(251.998 5.537)" fill="#3c4bff" stroke="#3c4bff" stroke-width="1"/>
      <path id="Path_3575" data-name="Path 3575" d="M341.742,304.025q-.037.766.147,5.375a39.482,39.482,0,0,1-.08,6.344q-.676,5.409-3.185,7.638a12.141,12.141,0,0,1-6.918,2.711,15.552,15.552,0,0,0,5.53-3.16,9.979,9.979,0,0,0,3.307-6.337q.015-1.338-.139-3.845t-.2-3.536a16.873,16.873,0,0,1,.523-3.426,10.4,10.4,0,0,1,.845-2.719c.09-.09.145-.08.169.03A5.139,5.139,0,0,1,341.742,304.025Zm.463-3.337.042.252a.987.987,0,0,1-.483.747,2.247,2.247,0,0,1-.9.339l-.147.03h-.132l-.294-.03-.294-.015-.135.015-.262.234-.18-.162.237-.262a1.406,1.406,0,0,1,.705-.222,1.291,1.291,0,0,0,.795-.222l.042-.189a.3.3,0,0,0-.087-.12,1.226,1.226,0,0,1-.5-.177l-.192-.219v-.249a1.838,1.838,0,0,1,.366-.845,1.237,1.237,0,0,1,.9-.625l-.077.588a.809.809,0,0,0-.411.192c-.057.027-.125.132-.2.309,0,.057.107.13.324.219Q342.1,300.438,342.206,300.688Z" transform="translate(257.7 3.23)" fill="#3c4bff" stroke="#3c4bff" stroke-width="1"/>
    </g>
    <g id="_25549-NVP68P_Recovered_" data-name="25549-NVP68P [Recovered]" transform="translate(102.861 5.298)">
      <path id="Path_3501" data-name="Path 3501" d="M113.469,176.4a37.675,37.675,0,0,1,30.278-58.855,37.675,37.675,0,1,0-3.658,75.071A37.594,37.594,0,0,1,113.469,176.4Z" transform="translate(-101.38 -117.25)" fill="#fff"/>
      <line id="Line_34" data-name="Line 34" x2="63.361" transform="translate(14.676 53.707)" fill="none" stroke="#fff" stroke-miterlimit="10" stroke-width="0.25"/>
      <path id="Path_3502" data-name="Path 3502" d="M160.97,302.356a.942.942,0,0,1,.135-.261c.038-.041.041,0,0,.135a.552.552,0,0,0,0,.336c.038.091.072.179.11.267a1.884,1.884,0,0,0,.094.2,1.1,1.1,0,0,1,.057.141.288.288,0,0,1,.016.126.628.628,0,0,1-.041.166.819.819,0,0,1-.138.289.458.458,0,0,1-.254.119l-.254.06c-.113.025-.232.053-.361.075s-.264.047-.4.06a1.57,1.57,0,0,1-.364,0,1.1,1.1,0,0,1-.314-.082.734.734,0,0,1-.207-.151l.031-.235a.794.794,0,0,1-.113-.672,1.813,1.813,0,0,1,.207-.446l.148-.2a.409.409,0,0,1,.066-.072v.025c0,.025-.019.047-.031.078a1.15,1.15,0,0,1-.1.163,1.837,1.837,0,0,0-.151.261,1.221,1.221,0,0,0-.1.314.471.471,0,0,0,.047.314.527.527,0,0,0,.276.257,1.173,1.173,0,0,0,.364.082,1.833,1.833,0,0,0,.449-.031l.458-.075.333-.057a1.374,1.374,0,0,0,.188-.041c.041,0,.047-.047,0-.1a1.9,1.9,0,0,1-.116-.21,1.94,1.94,0,0,1-.126-.345A.788.788,0,0,1,160.97,302.356Zm-.7-.213-.333.518-.584-.364.314-.487Z" transform="translate(-140.734 -243.846)" fill="#fff"/>
      <path id="Path_3503" data-name="Path 3503" d="M167.19,305.764a.885.885,0,0,1-.016.389,1.152,1.152,0,0,1-.132.264,1.4,1.4,0,0,1-.942.628.11.11,0,0,0-.022-.1.151.151,0,0,0-.1-.066l-.091-.019-.116-.025a1.986,1.986,0,0,1-.553-.188,1.074,1.074,0,0,1-.377-.383c-.056-.094-.082-.151-.072-.17s0,0,.031.041a.992.992,0,0,0,.069.1,1.275,1.275,0,0,0,.4.361,1.291,1.291,0,0,0,.584.138,1.824,1.824,0,0,0,.33-.019,1.464,1.464,0,0,0,.254-.066,1.111,1.111,0,0,0,.21-.119,1.283,1.283,0,0,0,.2-.17,1.16,1.16,0,0,0,.157-.2,1.522,1.522,0,0,0,.1-.2.738.738,0,0,0,.047-.273Q167.157,305.486,167.19,305.764Zm.066-.264a1.318,1.318,0,0,1-.176.8c-.144.091-.173.06-.085-.1a1.033,1.033,0,0,0,.141-.37.524.524,0,0,0-.063-.273l-.056.078-.066.057a.194.194,0,0,1-.126.038.279.279,0,0,1-.21-.088.314.314,0,0,1-.091-.22.627.627,0,0,1,.038-.2,1.5,1.5,0,0,1,.126-.267.377.377,0,0,1,.11-.16.107.107,0,0,1,.057-.047h.066c.078,0,.157.078.232.235a.809.809,0,0,1,.075.242v.126Zm-.276-.229a.078.078,0,0,0-.044-.075.107.107,0,0,0-.091-.038c-.056,0-.085.028-.085.091a.132.132,0,0,0,.019.078.085.085,0,0,0,.072.031.142.142,0,0,0,.075-.019.29.29,0,0,0,.053-.082Z" transform="translate(-144.733 -245.856)" fill="#fff"/>
      <path id="Path_3504" data-name="Path 3504" d="M172.994,306.433a.4.4,0,0,1,0,.276,1.482,1.482,0,0,1-.132.264,1.4,1.4,0,0,1-.942.628.11.11,0,0,0-.022-.1.151.151,0,0,0-.1-.066l-.091-.019-.116-.025a1.983,1.983,0,0,1-.553-.188,1.081,1.081,0,0,1-.38-.383c-.053-.094-.078-.151-.069-.17a.2.2,0,0,1,.028.041l.072.1a1.275,1.275,0,0,0,.4.361,1.29,1.29,0,0,0,.584.138,1.829,1.829,0,0,0,.314-.019,1.472,1.472,0,0,0,.254-.066,1.114,1.114,0,0,0,.21-.119,1.281,1.281,0,0,0,.2-.17,1.163,1.163,0,0,0,.157-.2.605.605,0,0,0,.085-.214C172.931,306.358,172.962,306.333,172.994,306.433Zm.54.17h-.192a.5.5,0,0,1-.144-.031l-.17-.078h-.053l-.082.028a.414.414,0,0,0-.079-.188l-.195-.314a.789.789,0,0,1-.044-.1l.031-.16a.474.474,0,0,1,.06-.185l.17.267.085.151a.75.75,0,0,0,.226.163.627.627,0,0,0,.264.085h.129Z" transform="translate(-148.726 -246.426)" fill="#fff"/>
      <path id="Path_3505" data-name="Path 3505" d="M181.031,306.877h-.154a.5.5,0,0,1-.48-.3.783.783,0,0,1-.182.185.5.5,0,0,1-.314.11h-.1v-.361h.1a.681.681,0,0,0,.314-.069.4.4,0,0,0,.191-.157l.057-.126.082-.195.031.031-.031.085a.193.193,0,0,1-.016.1.763.763,0,0,0,0,.085.484.484,0,0,0,.107.154.418.418,0,0,0,.292.094h.107Zm-.333.505-.191.314-.33-.21.195-.292Z" transform="translate(-155.049 -246.7)" fill="#fff"/>
      <path id="Path_3506" data-name="Path 3506" d="M184.27,305.705l-.336.21a1.212,1.212,0,0,1-.531.148V305.7a.96.96,0,0,0,.65-.2.678.678,0,0,0-.44-.261.382.382,0,0,0-.195.041.076.076,0,0,1-.041,0,.019.019,0,0,1-.022-.022.124.124,0,0,1,0-.041l.113-.254c.019-.047.122-.091.314-.135a2.411,2.411,0,0,1,.524-.063,1.57,1.57,0,0,1,.779.217c.05.031.075.06.075.075a.2.2,0,0,1-.022.06l-.122.22a4.521,4.521,0,0,0-.443.2.91.91,0,0,0,.606.138v.361a1.775,1.775,0,0,1-.493-.041A1.531,1.531,0,0,1,184.27,305.705Zm.4-.512a1.061,1.061,0,0,0-.6-.069,1.723,1.723,0,0,1,.289.223Z" transform="translate(-157.487 -245.87)" fill="#fff"/>
      <path id="Path_3507" data-name="Path 3507" d="M189.214,302.525l-.185.314-.339-.207.192-.292Zm.283,1.027a1.683,1.683,0,0,1-.063.411.879.879,0,0,1-.066.21l-.06.129a.229.229,0,0,1-.1.044.665.665,0,0,1-.229.041h-.188v-.361h.333l.138-.019a.1.1,0,0,0,.091-.078.92.92,0,0,0-.151-.465l-.148-.188.06-.163.016-.028a.252.252,0,0,1,.047-.085h0l.016-.016a.7.7,0,0,1,.176.21.732.732,0,0,1,.132.358Zm.22-1.027-.188.314-.342-.207.2-.292Z" transform="translate(-161.148 -244.21)" fill="#fff"/>
      <path id="Path_3508" data-name="Path 3508" d="M194.269,299.72a.634.634,0,0,1,0-.116c0-.016,0-.016.022,0a1.494,1.494,0,0,1,.1.345,2.1,2.1,0,0,1,.066.43,3.5,3.5,0,0,1-.025.446,1.741,1.741,0,0,0,0,.483.9.9,0,0,0,.22.6,1.074,1.074,0,0,0,.662.242v.361a1.064,1.064,0,0,1-.713-.345,1.849,1.849,0,0,1-.33-.967,5,5,0,0,1,0-.8C194.266,300,194.272,299.777,194.269,299.72Z" transform="translate(-164.968 -242.325)" fill="#fff"/>
      <path id="Path_3509" data-name="Path 3509" d="M197.841,306.224l-.188.314-.342-.2.2-.292Zm.217-1.256a1.658,1.658,0,0,1-.063.411,1.882,1.882,0,0,1-.063.2l-.063.135-.079.035a.686.686,0,0,1-.251.05h-.17v-.361h.2c.207,0,.314-.031.348-.1a1.064,1.064,0,0,0-.053-.264.6.6,0,0,0-.094-.2l-.148-.188.06-.163.016-.031.022-.044.044-.063a.575.575,0,0,1,.182.21,1.228,1.228,0,0,1,.078.192.533.533,0,0,1,.022.166Zm.286,1.256-.192.314-.348-.2.2-.292Z" transform="translate(-167.061 -245.616)" fill="#fff"/>
      <path id="Path_3510" data-name="Path 3510" d="M201.479,305.616a.562.562,0,0,1-.06.151.314.314,0,0,1-.091.063l-.873.424v-.031q0-.1.16-.2a2.711,2.711,0,0,0,.251-.116.584.584,0,0,1-.411-.2.173.173,0,0,1-.025-.091.558.558,0,0,1,.053-.2l.069-.119.094-.116c.126-.154.239-.229.342-.229a.182.182,0,0,1,.135.063.207.207,0,0,1,.057.138.477.477,0,0,1-.1.229.276.276,0,0,0-.223-.151.292.292,0,0,0-.179.072.267.267,0,0,0-.069.176c0,.053.057.1.173.154a.828.828,0,0,0,.339.075.629.629,0,0,0,.229-.038A.673.673,0,0,0,201.479,305.616Z" transform="translate(-169.202 -246)" fill="#fff"/>
      <path id="Path_3511" data-name="Path 3511" d="M205.655,300.794a.229.229,0,0,1-.107.229l-.628.292V301.3l.342-.283a.232.232,0,0,1-.132-.21.248.248,0,0,1,.182-.248.254.254,0,0,1,.075-.019.276.276,0,0,1,.195.075.238.238,0,0,1,.072.179Zm-.144,0a.113.113,0,0,0-.041-.091.151.151,0,0,0-.091-.035c-.079,0-.119.047-.119.141a.116.116,0,0,0,.132.129c.022,0,.047-.019.075-.05a.144.144,0,0,0,.044-.1Z" transform="translate(-172.282 -242.975)" fill="#fff"/>
      <path id="Path_3512" data-name="Path 3512" d="M202.727,306.433a.4.4,0,0,1,0,.276,1.31,1.31,0,0,1-.135.264,1.385,1.385,0,0,1-.942.628.119.119,0,0,0-.022-.1.157.157,0,0,0-.107-.066l-.088-.019-.119-.025a1.961,1.961,0,0,1-.549-.188,1.055,1.055,0,0,1-.38-.383c-.057-.094-.078-.151-.069-.17l.028.041.072.1a1.257,1.257,0,0,0,.427.358,1.287,1.287,0,0,0,.581.138,1.882,1.882,0,0,0,.333-.019,1.425,1.425,0,0,0,.251-.066,1.127,1.127,0,0,0,.214-.119,1.45,1.45,0,0,0,.2-.17,1.16,1.16,0,0,0,.157-.2.606.606,0,0,0,.085-.214C202.676,306.358,202.7,306.333,202.727,306.433Zm.54.17h-.192a.462.462,0,0,1-.144-.031l-.173-.078H202.7l-.078.028a.455.455,0,0,0-.078-.188l-.195-.314a.521.521,0,0,1-.047-.1l.031-.16a.534.534,0,0,1,.06-.185l.173.267.085.151a.751.751,0,0,0,.226.163.6.6,0,0,0,.264.085h.122Z" transform="translate(-169.122 -246.426)" fill="#fff"/>
      <path id="Path_3513" data-name="Path 3513" d="M210.633,299.732c0,.063,0,.289.019.675a5,5,0,0,1,0,.8,1.849,1.849,0,0,1-.33.967,1.055,1.055,0,0,1-.694.345l-.019-.361a1.074,1.074,0,0,0,.662-.242.9.9,0,0,0,.22-.6v-.483c0-.21-.022-.358-.025-.446a2.1,2.1,0,0,1,.066-.43,1.494,1.494,0,0,1,.1-.345h.022a.629.629,0,0,1-.025.122Zm.314,2.788h-.063a.581.581,0,0,1-.455-.214.46.46,0,0,1-.082-.122,1.11,1.11,0,0,1-.047-.176l-.025.088q0,.047.217-.207l.035.075a.314.314,0,0,0,.107.113l.129.063.06.016h.126Z" transform="translate(-175.5 -242.337)" fill="#fff"/>
      <path id="Path_3514" data-name="Path 3514" d="M214.824,299.732c0,.063,0,.289.019.675a5,5,0,0,1,0,.8,1.818,1.818,0,0,1-.333.967,1.058,1.058,0,0,1-.71.345v-.361a1.051,1.051,0,0,0,.656-.242.885.885,0,0,0,.223-.6c0-.113,0-.273-.019-.483s-.019-.358-.025-.446a2.108,2.108,0,0,1,.066-.43,1.436,1.436,0,0,1,.107-.345h.022A.632.632,0,0,1,214.824,299.732Z" transform="translate(-178.374 -242.337)" fill="#fff"/>
      <path id="Path_3515" data-name="Path 3515" d="M222.012,304.46l-.1-.2a.474.474,0,0,1,.047-.418.314.314,0,0,1,.27-.126.848.848,0,0,1,.4.176c.185.126.276.232.276.314a2.561,2.561,0,0,1-.1.314c-.069.019-.248.078-.534.179,0,.119,0,.179-.031.179s-.053-.044-.075-.135a1.133,1.133,0,0,0-.377.217.527.527,0,0,0-.16.4,3.138,3.138,0,0,0,.1.606c.041.166.078.336.119.509a2.3,2.3,0,0,1,.06.672q-.028.207-.047.207a1.092,1.092,0,0,1-.028-.2,2.881,2.881,0,0,0-.044-.37,6.39,6.39,0,0,1-.267-1.325,1.46,1.46,0,0,1,.129-.681.71.71,0,0,1,.358-.314Zm.484-.188c0-.028-.053-.069-.16-.116a.7.7,0,0,0-.261-.072c-.044,0-.063,0-.053.028a2.434,2.434,0,0,0,.135.283A3.078,3.078,0,0,0,222.5,304.271Zm-.314.487.119-.009c0,.057.041.113.119.17a.753.753,0,0,0,.314.066h.138v.361h-.182a.681.681,0,0,1-.314-.069.361.361,0,0,1-.195-.217.474.474,0,0,1-.028-.157v-.069a.129.129,0,0,1,.016-.085Z" transform="translate(-183.673 -245.155)" fill="#fff"/>
      <path id="Path_3516" data-name="Path 3516" d="M226.941,305.094h-.154a.5.5,0,0,1-.48-.3.847.847,0,0,1-.182.185.5.5,0,0,1-.314.11h-.1v-.361h.1a.682.682,0,0,0,.314-.069.377.377,0,0,0,.188-.157l.057-.126.085-.195.031.031-.031.085a.193.193,0,0,1-.016.1.391.391,0,0,0,0,.085.487.487,0,0,0,.11.154.417.417,0,0,0,.292.094h.107Zm-.593-1.526-.188.292-.339-.2.2-.289Zm.5,0-.192.292-.339-.2.188-.289Z" transform="translate(-186.545 -244.916)" fill="#fff"/>
      <path id="Path_3517" data-name="Path 3517" d="M230.7,305.039h-.154a.5.5,0,0,1-.48-.3.784.784,0,0,1-.182.185.5.5,0,0,1-.3.11h-.1v-.361h.1a.681.681,0,0,0,.314-.069.386.386,0,0,0,.192-.157l.056-.126.082-.195.031.031-.031.085a.193.193,0,0,1-.016.1.778.778,0,0,0,0,.085.483.483,0,0,0,.107.154.418.418,0,0,0,.292.094h.107Zm-.21-1.57-.188.314-.342-.2.2-.289Z" transform="translate(-189.131 -244.861)" fill="#fff"/>
      <path id="Path_3518" data-name="Path 3518" d="M233.48,299.685a.679.679,0,0,1-.082.345.978.978,0,0,1-.314.314,1.5,1.5,0,0,1-.427.22,1.4,1.4,0,0,1-.4.05v-.361a1.331,1.331,0,0,0,1.1-.455.1.1,0,0,0,.025-.05q0-.025-.056-.075a3.6,3.6,0,0,0-.484-.345c-.257-.16-.427-.27-.505-.33a1.991,1.991,0,0,1-.433-.424.2.2,0,0,0-.05-.028c-.031-.013-.047-.028-.047-.038,0-.314.038-.493.113-.562a5.6,5.6,0,0,1,1.256-.684,4.176,4.176,0,0,1,1.256-.433.157.157,0,0,1,.122.038.17.17,0,0,1,.035.122.87.87,0,0,1-.242.505l-.182.207a1.379,1.379,0,0,0-.195.273.219.219,0,0,1-.041.069v-.094a.814.814,0,0,1,.082-.182.767.767,0,0,1,.094-.154,4.267,4.267,0,0,0,.314-.4.04.04,0,0,0,0-.019c0-.041-.05-.06-.154-.06a4.082,4.082,0,0,0-1.149.414,6.44,6.44,0,0,0-1.256.684v.035l.314.151c.069.031.107.06.107.082s-.031.031-.088.031h-.1a1.785,1.785,0,0,0,.468.355,6.142,6.142,0,0,1,.578.364A.628.628,0,0,1,233.48,299.685Z" transform="translate(-190.723 -240.427)" fill="#fff"/>
      <path id="Path_3519" data-name="Path 3519" d="M243.826,302.356a1.036,1.036,0,0,1,.135-.261c.041-.041.044,0,0,.135a.552.552,0,0,0,0,.336c.035.091.069.179.107.267s.069.154.094.2a.813.813,0,0,1,.06.141.286.286,0,0,1,0,.126.748.748,0,0,1-.038.166.813.813,0,0,1-.141.289.446.446,0,0,1-.251.119l-.257.06c-.11.025-.229.053-.361.075s-.264.047-.4.06a1.6,1.6,0,0,1-.367,0,1.105,1.105,0,0,1-.314-.082.652.652,0,0,1-.207-.151l.028-.235a.8.8,0,0,1-.11-.672,1.813,1.813,0,0,1,.207-.446,2.435,2.435,0,0,1,.148-.2.255.255,0,0,1,.066-.072v.025a.239.239,0,0,1-.028.078,1.561,1.561,0,0,1-.1.163,1.841,1.841,0,0,0-.151.261,1.365,1.365,0,0,0-.1.314.512.512,0,0,0,.047.314.531.531,0,0,0,.279.257,1.155,1.155,0,0,0,.361.082,1.858,1.858,0,0,0,.452-.031l.458-.075.33-.057a1.165,1.165,0,0,0,.188-.041c.044,0,.047-.047.016-.1a1.852,1.852,0,0,1-.119-.21,1.959,1.959,0,0,1-.122-.345A.807.807,0,0,1,243.826,302.356Zm-.7-.213-.342.518-.584-.364.314-.487Z" transform="translate(-197.565 -243.846)" fill="#fff"/>
      <path id="Path_3520" data-name="Path 3520" d="M250.353,300.739c0,.063,0,.289.019.675a4.885,4.885,0,0,1,0,.8,1.507,1.507,0,0,1-.4.964,1.57,1.57,0,0,1-.873.339,1.958,1.958,0,0,0,.7-.4,1.256,1.256,0,0,0,.418-.8c0-.113,0-.273-.019-.484s-.022-.358-.025-.446a2.107,2.107,0,0,1,.066-.43,1.215,1.215,0,0,1,.107-.342h.022A.63.63,0,0,1,250.353,300.739Zm-.628,3.011v.031c0,.06-.057.1-.163.129h-.119c-.016,0-.025,0-.028.025l-.019-.019.022-.028a.51.51,0,0,1,.088-.031.16.16,0,0,0,.094-.022v-.022h0a.113.113,0,0,1-.078-.063.156.156,0,0,1,.041-.11.144.144,0,0,1,.107-.075v.075a.147.147,0,0,0-.053,0l-.022.035a.193.193,0,0,0,.063.038.091.091,0,0,1,.063.038Z" transform="translate(-202.591 -243.03)" fill="#fff"/>
      <path id="Path_3521" data-name="Path 3521" d="M254.529,305.8v.022a1.353,1.353,0,0,1-.044.286,1.1,1.1,0,0,1-.107.292,1.34,1.34,0,0,1-.6.314c-.154.053-.279.094-.374.116a5.122,5.122,0,0,1-1.089.116h-.276l-.424-.016a2.792,2.792,0,0,1-.392-.031c.022-.148-.173-.267-.581-.361a5.054,5.054,0,0,1-1.08-.364,3.26,3.26,0,0,1-.609-.348,7.892,7.892,0,0,0,1.931.669l.314.041.383.038h.213c.267,0,.418.016.455.016q.367,0,.628-.019a3.72,3.72,0,0,0,.531-.078,2.805,2.805,0,0,0,.656-.214.486.486,0,0,0,.22-.176c0-.025-.038-.056-.116-.091h-.038l-.075-.025-.154-.038c-.094-.022-.223-.063-.386-.116s-.229-.126-.242-.182v-.031a2.412,2.412,0,0,1,.035-.279,1.015,1.015,0,0,1,.06-.257,1.033,1.033,0,0,1,.436-.493.942.942,0,0,1,.487-.154.286.286,0,0,1,.188.053l.028.085v.129a.292.292,0,0,1-.038.185l-.069-.022-.066-.019h-.144a.813.813,0,0,0-.527.217c-.135.113-.2.2-.195.248s.107.122.276.176l.452.135C254.391,305.644,254.495,305.716,254.529,305.8Z" transform="translate(-202.488 -245.649)" fill="#fff"/>
      <path id="Path_3522" data-name="Path 3522" d="M267.168,299.72a.631.631,0,0,1,0-.116c0-.016,0-.016.022,0a1.3,1.3,0,0,1,.107.345,2.105,2.105,0,0,1,.066.43,3.5,3.5,0,0,1-.025.446,3.587,3.587,0,0,0-.019.483.9.9,0,0,0,.223.6,1.055,1.055,0,0,0,.659.242v.361a1.058,1.058,0,0,1-.71-.345,1.849,1.849,0,0,1-.33-.967,4.548,4.548,0,0,1,0-.8C267.165,300,267.171,299.777,267.168,299.72Z" transform="translate(-214.97 -242.325)" fill="#fff"/>
      <path id="Path_3523" data-name="Path 3523" d="M270.751,306.224l-.191.314-.339-.2.195-.292Zm.217-1.256a1.685,1.685,0,0,1-.066.411,1.369,1.369,0,0,1-.063.2l-.06.135-.082.035a.662.662,0,0,1-.251.05h-.166v-.361h.2c.2,0,.314-.031.348-.1a1.454,1.454,0,0,0-.053-.264.67.67,0,0,0-.094-.2l-.151-.188.06-.163.019-.031.019-.044.047-.063a.6.6,0,0,1,.179.21,1.263,1.263,0,0,1,.082.191.534.534,0,0,1,.031.166Zm.283,1.256-.188.314-.348-.2.2-.292Z" transform="translate(-217.08 -245.616)" fill="#fff"/>
      <path id="Path_3524" data-name="Path 3524" d="M275.007,303.077a2.091,2.091,0,0,1-.314,1.093c-.2.336-.427.5-.678.5a.849.849,0,0,1-.314-.06l-.122-.047a1.292,1.292,0,0,1-.179-.094l.05-.041.154.05h.154a.857.857,0,0,0,.361-.094,1.049,1.049,0,0,0,.333-.223,1.7,1.7,0,0,0,.292-.4.941.941,0,0,0,.132-.44v-.151l-.031-.053-.06.075-.066.06a.185.185,0,0,1-.122.038.286.286,0,0,1-.214-.088.314.314,0,0,1-.091-.22.659.659,0,0,1,.038-.207,1.59,1.59,0,0,1,.126-.264.407.407,0,0,1,.11-.163.116.116,0,0,1,.056-.044h.069c.075,0,.154.078.229.232a.865.865,0,0,1,.075.245l.016.126Zm-.791-1.312v.047c0,.091-.082.154-.245.191H273.8a.091.091,0,0,0-.044.038l-.028-.028.031-.044a.628.628,0,0,1,.129-.041.252.252,0,0,0,.148-.038v-.031s0-.019-.016-.022a.157.157,0,0,1-.116-.091.233.233,0,0,1,.06-.163c.06-.075.107-.113.16-.113v.11a.2.2,0,0,0-.082.025l-.031.047q0,.022.094.057A.383.383,0,0,1,274.216,301.765Zm.48,1.064a.091.091,0,0,0-.044-.075.107.107,0,0,0-.091-.038c-.057,0-.085.028-.085.091a.129.129,0,0,0,.022.079.079.079,0,0,0,.069.031.154.154,0,0,0,.078-.019.371.371,0,0,0,.047-.069Z" transform="translate(-219.262 -243.613)" fill="#fff"/>
      <path id="Path_3525" data-name="Path 3525" d="M281.682,300.065a.235.235,0,0,1-.1.229l-.628.289h0l.339-.283a.235.235,0,0,1-.129-.21.248.248,0,0,1,.179-.248.376.376,0,0,1,.075-.022.276.276,0,0,1,.195.075.242.242,0,0,1,.072.17Zm-.144,0a.11.11,0,0,0-.041-.091.132.132,0,0,0-.091-.038c-.078,0-.116.047-.116.141a.116.116,0,0,0,.132.129.129.129,0,0,0,.075-.047.151.151,0,0,0,.041-.1Z" transform="translate(-224.442 -242.481)" fill="#fff"/>
      <path id="Path_3526" data-name="Path 3526" d="M279.363,305.431a.574.574,0,0,1,0,.135,1.178,1.178,0,0,1-.031.21,1.676,1.676,0,0,1-.075.261,1.3,1.3,0,0,1-.138.27,1.416,1.416,0,0,1-.967.628.119.119,0,0,0-.019-.1.173.173,0,0,0-.11-.066l-.091-.019-.122-.025a2.113,2.113,0,0,1-.565-.195,1.076,1.076,0,0,1-.386-.392c-.057-.094-.082-.151-.072-.173a.287.287,0,0,1,.031.041c.019.031.044.066.072.1a1.177,1.177,0,0,0,1.011.512,1.693,1.693,0,0,0,.339-.022,1.128,1.128,0,0,0,.257-.066,1.253,1.253,0,0,0,.217-.119,1.549,1.549,0,0,0,.2-.176,1.09,1.09,0,0,0,.16-.2.747.747,0,0,0,.088-.22.847.847,0,0,0,0-.38,1.546,1.546,0,0,1-.063-.314.943.943,0,0,1,0-.235,1,1,0,0,1,.075-.195c.041-.075.069-.116.091-.126s.031,0,.025.016a.782.782,0,0,0,0,.427A1.931,1.931,0,0,0,279.363,305.431Z" transform="translate(-221.583 -245.731)" fill="#fff"/>
      <path id="Path_3527" data-name="Path 3527" d="M286.385,308.071h-.063a2.058,2.058,0,0,0-.6.06c-.078.022-.113.053-.1.091l.264.1.21.091a.54.54,0,0,1,.276.223v.025a2.2,2.2,0,0,1-.044.239.785.785,0,0,1-.1.283c-.019.044-.113.11-.286.195a2.494,2.494,0,0,1-.691.245,4.863,4.863,0,0,1-1.093.122h-.276l-.424-.016-.392-.031c.038-.141-.157-.254-.581-.342a3.97,3.97,0,0,1-1.086-.367,2.266,2.266,0,0,1-.549-.355l.534.267a5.474,5.474,0,0,0,1.472.389,9.7,9.7,0,0,0,1.13.085,6.167,6.167,0,0,0,.728-.025,4.659,4.659,0,0,0,.531-.069,3.3,3.3,0,0,0,.4-.1,1.476,1.476,0,0,0,.283-.129c.129-.069.2-.129.217-.182s-.041-.069-.126-.122a.772.772,0,0,0-.173-.082l-.333-.116a.459.459,0,0,1-.119-.072.1.1,0,0,1-.044-.075.388.388,0,0,1,0-.082,1.038,1.038,0,0,1,.047-.148,1.658,1.658,0,0,1,.1-.229.581.581,0,0,1,.195-.138,1.036,1.036,0,0,1,.443-.1h.245Z" transform="translate(-224.366 -247.894)" fill="#fff"/>
      <path id="Path_3528" data-name="Path 3528" d="M299.646,302.242a1.255,1.255,0,0,1-.113.458,1.357,1.357,0,0,1-.138.276.521.521,0,0,1-.214.122l-.173.05h-.669v-.361h.427a1.177,1.177,0,0,0,.509-.079.336.336,0,0,0,.16-.163.2.2,0,0,0,.028-.1v-.063l-.022-.063v-.06l-.035-.063-.063.122a.263.263,0,0,1-.056.1.37.37,0,0,1-.286.122.458.458,0,0,1-.257-.085.314.314,0,0,1-.126-.292.871.871,0,0,1,.028-.213q.035-.11.094-.254a1.074,1.074,0,0,1,.248-.361.241.241,0,0,1,.1-.038.166.166,0,0,1,.088.022.314.314,0,0,1,.1.053l.066.069a1.018,1.018,0,0,1,.248.418A1.094,1.094,0,0,1,299.646,302.242Zm-.424-1.507-.191.314-.342-.2.195-.3Zm.1,1.328V302a.492.492,0,0,0-.157-.173.672.672,0,0,0-.113-.06.285.285,0,0,0-.1-.019.248.248,0,0,0-.126.06.182.182,0,0,0-.05.141c0,.035.031.075.094.116a.628.628,0,0,0,.229.047.709.709,0,0,0,.223-.047Z" transform="translate(-236.372 -242.982)" fill="#fff"/>
      <path id="Path_3529" data-name="Path 3529" d="M304.014,308.085h-.063a2.059,2.059,0,0,0-.6.06c-.078.022-.113.053-.1.091l.261.1.214.091a.556.556,0,0,1,.276.223v.025a2.2,2.2,0,0,1-.044.239.787.787,0,0,1-.1.283c-.019.044-.113.11-.286.195a2.493,2.493,0,0,1-.691.245,4.858,4.858,0,0,1-1.093.122H301.5l-.424-.016-.392-.031c.038-.141-.157-.254-.581-.342a3.994,3.994,0,0,1-1.089-.367,2.292,2.292,0,0,1-.546-.355l.534.267a5.471,5.471,0,0,0,1.472.389,9.585,9.585,0,0,0,1.127.085,6.231,6.231,0,0,0,.732-.025,4.661,4.661,0,0,0,.531-.069,3.325,3.325,0,0,0,.4-.1,1.48,1.48,0,0,0,.289-.122c.129-.069.2-.129.217-.182s-.041-.069-.126-.122a.78.78,0,0,0-.173-.082l-.333-.116a.458.458,0,0,1-.119-.072.1.1,0,0,1-.044-.075.376.376,0,0,1,0-.082,1.035,1.035,0,0,1,.047-.148,1.653,1.653,0,0,1,.1-.229.581.581,0,0,1,.195-.138,1.036,1.036,0,0,1,.443-.1H304Z" transform="translate(-236.461 -247.907)" fill="#fff"/>
      <path id="Path_3530" data-name="Path 3530" d="M316.728,303.49a1.547,1.547,0,0,1-.069.4.894.894,0,0,1-.154.345l-.207.063h-.1a.445.445,0,0,1-.091,0H316v-.361h.166c.251,0,.389-.031.414-.1a.405.405,0,0,0,0-.113.553.553,0,0,0-.05-.141.629.629,0,0,0-.119-.21l-.173-.188a.6.6,0,0,1,.019-.066.383.383,0,0,1,.038-.082l.047-.091.053-.063a.628.628,0,0,1,.223.21.814.814,0,0,1,.1.185A.509.509,0,0,1,316.728,303.49Zm-.138-1.058-.188.314-.339-.2.191-.3Z" transform="translate(-248.487 -244.148)" fill="#fff"/>
      <path id="Path_3531" data-name="Path 3531" d="M318.76,306.77a.839.839,0,0,1-.016.389,1.257,1.257,0,0,1-.132.267,1.406,1.406,0,0,1-.942.628.12.12,0,0,0-.019-.1.166.166,0,0,0-.107-.066l-.088-.019-.119-.025a1.983,1.983,0,0,1-.553-.188,1.074,1.074,0,0,1-.377-.383c-.057-.094-.082-.148-.072-.166s0,0,.031.038a1.178,1.178,0,0,0,.069.1,1.134,1.134,0,0,0,.986.5,1.885,1.885,0,0,0,.333-.019,1.5,1.5,0,0,0,.251-.066,1.111,1.111,0,0,0,.21-.119,1.281,1.281,0,0,0,.2-.17.942.942,0,0,0,.157-.2,1.52,1.52,0,0,0,.1-.2.726.726,0,0,0,.047-.273C318.741,306.579,318.741,306.6,318.76,306.77Zm.066-.264a1.312,1.312,0,0,1-.176.8q-.217.141-.085-.1a1.032,1.032,0,0,0,.141-.371.534.534,0,0,0-.06-.27l-.06.075-.066.06a.189.189,0,0,1-.126.035.28.28,0,0,1-.21-.088.314.314,0,0,1-.091-.22.627.627,0,0,1,.038-.2,1.387,1.387,0,0,1,.126-.264.386.386,0,0,1,.11-.163.088.088,0,0,1,.057-.044h.069c.075,0,.154.078.229.235a.8.8,0,0,1,.075.245l.016.122Zm-.276-.229a.091.091,0,0,0-.044-.075.107.107,0,0,0-.091-.038c-.057,0-.085.031-.085.091a.15.15,0,0,0,.019.082.1.1,0,0,0,.072.031.136.136,0,0,0,.075-.022.244.244,0,0,0,.053-.063Z" transform="translate(-248.716 -246.549)" fill="#fff"/>
      <path id="Path_3532" data-name="Path 3532" d="M325.311,305.094h-.157a.5.5,0,0,1-.48-.3.836.836,0,0,1-.179.185.508.508,0,0,1-.314.11h-.1v-.361h.1a.682.682,0,0,0,.314-.069.377.377,0,0,0,.188-.157l.057-.126.085-.195.031.031-.031.085a.165.165,0,0,1-.019.1.77.77,0,0,0,0,.085.484.484,0,0,0,.107.154.421.421,0,0,0,.3.094h.1Zm-.581-1.526-.188.292-.339-.2.195-.289Zm.5,0-.188.292-.339-.2.188-.289Z" transform="translate(-254.03 -244.916)" fill="#fff"/>
      <path id="Path_3533" data-name="Path 3533" d="M329.146,302.242a1.257,1.257,0,0,1-.113.458,1.4,1.4,0,0,1-.135.276.562.562,0,0,1-.217.122l-.173.05h-.669v-.361h.43a1.177,1.177,0,0,0,.509-.079.336.336,0,0,0,.16-.163.2.2,0,0,0,.028-.1v-.063l-.025-.063v-.06l-.035-.063-.066.122a.229.229,0,0,1-.053.1.377.377,0,0,1-.286.122.449.449,0,0,1-.257-.085.314.314,0,0,1-.126-.292.868.868,0,0,1,.028-.213,1.641,1.641,0,0,1,.094-.254,1.074,1.074,0,0,1,.248-.361.242.242,0,0,1,.1-.038.172.172,0,0,1,.088.022.315.315,0,0,1,.1.053l.063.069a.983.983,0,0,1,.248.418A1.023,1.023,0,0,1,329.146,302.242Zm-.424-1.507-.188.314-.342-.2.195-.3Zm.1,1.328V302a.54.54,0,0,0-.16-.173.5.5,0,0,0-.113-.06.267.267,0,0,0-.1-.019.248.248,0,0,0-.126.06.182.182,0,0,0-.05.141c0,.035.031.075.094.116a.628.628,0,0,0,.229.047.709.709,0,0,0,.232-.047Z" transform="translate(-256.61 -242.982)" fill="#fff"/>
      <path id="Path_3534" data-name="Path 3534" d="M332.993,299.607c0,.063,0,.289.019.675a4.988,4.988,0,0,1,0,.8,1.507,1.507,0,0,1-.4.964,1.535,1.535,0,0,1-.87.339,1.959,1.959,0,0,0,.7-.4,1.256,1.256,0,0,0,.414-.8c0-.113,0-.273-.016-.483s-.022-.358-.025-.446a2.109,2.109,0,0,1,.066-.43,1.216,1.216,0,0,1,.107-.342H333A.63.63,0,0,1,332.993,299.607Zm.06-.421v.031a.129.129,0,0,1-.063.094.293.293,0,0,1-.113.044h-.113l-.031.028-.025-.019.031-.035a.192.192,0,0,1,.088-.028.161.161,0,0,0,.1-.028v-.022a.035.035,0,0,0,0-.016.212.212,0,0,1-.063-.022l-.022-.028v-.031a.21.21,0,0,1,.044-.107.154.154,0,0,1,.113-.078v.072a.126.126,0,0,0-.05.025s0,.016-.025.041,0,0,.041.025S333.043,299.165,333.052,299.187Z" transform="translate(-259.285 -241.898)" fill="#fff"/>
      <path id="Path_3535" data-name="Path 3535" d="M141.4,217.938h2.512q5.771,7.654,18.709,7.651a25.461,25.461,0,0,0-2.3-9.482,18.108,18.108,0,0,0-4.361-6.028h9.971v1.67a.348.348,0,0,1-.348.345h-5.315a23.349,23.349,0,0,1,3.221,6.436,22.743,22.743,0,0,1,1.162,7.074V227.6H162Q148.285,227.608,141.4,217.938Z" transform="translate(-128.705 -180.916)" fill="#fff"/>
      <path id="Path_3536" data-name="Path 3536" d="M215.43,245.185v-2.019a8.663,8.663,0,0,0,3.733-3.071,7.4,7.4,0,0,0,1.783-4.4h2.019v13.959a8.967,8.967,0,0,1-3.246-1.761,11.2,11.2,0,0,1-2.512-2.713H219.6a2.908,2.908,0,0,0,1.416,1.275V240.9a11.484,11.484,0,0,1-2.436,2.666A6.959,6.959,0,0,1,215.43,245.185Z" transform="translate(-179.492 -198.492)" fill="#fff"/>
      <path id="Path_3537" data-name="Path 3537" d="M239.35,227.608V225.59q2.879-1.46,2.876-6.954V210.08h1.994v17.528h-1.994V225.5A4.217,4.217,0,0,1,239.35,227.608Z" transform="translate(-195.902 -180.916)" fill="#fff"/>
      <path id="Path_3538" data-name="Path 3538" d="M254.79,242.907v-2.019H273a17.708,17.708,0,0,0-7.155-4.939,23.861,23.861,0,0,0-8.624-1.551V232.38a24.25,24.25,0,0,1,11.3,2.6,20.533,20.533,0,0,1,8.392,7.931Z" transform="translate(-206.495 -196.215)" fill="#fff"/>
      <path id="Path_3539" data-name="Path 3539" d="M210.57,173.247q3.174-2.132,3.177-10.6v-6.26h1.981v9.322a11.264,11.264,0,0,1-2.364,7.535Z" transform="translate(-176.158 -144.082)" fill="#fff"/>
      <path id="Path_3540" data-name="Path 3540" d="M226.81,167.144v-2.016q2.9-1.159,3.768-5.937a14.169,14.169,0,0,0,.232-2.571h2.025v7.928q3.768-2.317,3.768-7.928h1.947v7.811q2.578-1.507,3.432-5.611a11.024,11.024,0,0,0,.21-2.2h2.016v10.524h-1.994v-3.642a8.4,8.4,0,0,1-5.61,3.871v-3.617a8.455,8.455,0,0,1-2.552,2.355,8.109,8.109,0,0,1-3.221,1.24v-3.2a4.06,4.06,0,0,1-1.171,1.551,6.484,6.484,0,0,1-1.749,1.137A3.561,3.561,0,0,1,226.81,167.144Z" transform="translate(-187.299 -144.24)" fill="#fff"/>
      <path id="Path_3541" data-name="Path 3541" d="M282.2,157.869v-2.016h2.085a10.32,10.32,0,0,1,2.389-6.1,9.358,9.358,0,0,1,4.289-2.992v11.1Zm4.034-2.016h2.713v-5.589A7.29,7.29,0,0,0,286.234,155.853ZM288.6,144.4a1.3,1.3,0,0,1,2.239-.9,1.344,1.344,0,0,1,.4.9,1.121,1.121,0,0,1-.408.87,1.7,1.7,0,0,1-.942.427,1.325,1.325,0,0,1-.857-.392A1.193,1.193,0,0,1,288.6,144.4Z" transform="translate(-225.299 -134.965)" fill="#fff"/>
      <path id="Path_3542" data-name="Path 3542" d="M173.783,225.37q.188,0,.217.085a.688.688,0,0,0-.085.1,2.449,2.449,0,0,1-.264.273l-.314.261a1.237,1.237,0,0,0-.314.289l-.2.22-.245.377a1.187,1.187,0,0,0-.188.628.44.44,0,0,0,.261.361l.477.144a.405.405,0,0,1,.267.254,1.368,1.368,0,0,1,.082.515v.374a.853.853,0,0,1-.072.348,2.825,2.825,0,0,1-.465.942,4.1,4.1,0,0,1-1.664,1.215c-.819.386-1.322.543-1.507.465q-.085-.314.819-.659a3.385,3.385,0,0,0,1.152-.628,1.8,1.8,0,0,0,.355-.43.973.973,0,0,0,.107-.4.537.537,0,0,0-.377-.48.961.961,0,0,1-.462-.273l-.116-.449-.044-.509a3.2,3.2,0,0,1,.788-2.091,2.3,2.3,0,0,1,1.8-.939Z" transform="translate(-148.159 -191.405)" fill="#fff"/>
    </g>
    <g id="Group_1695" data-name="Group 1695">
      <g transform="matrix(1, 0, 0, 1, -21.5, -8.5)" filter="url(#Rectangle_1447)">
        <rect id="Rectangle_1447-2" data-name="Rectangle 1447" width="331.861" height="51.482" rx="25.741" transform="translate(1168.58 25.5)" fill="#fff"/>
      </g>
      <path id="ic_search_24px" d="M22.117,19.823H20.909l-.428-.413a9.956,9.956,0,1,0-1.071,1.071l.413.428v1.208l7.647,7.632,2.279-2.279Zm-9.176,0a6.882,6.882,0,1,1,6.882-6.882A6.873,6.873,0,0,1,12.941,19.823Z" transform="translate(1157.008 26.578)" fill="#3c4bff"/>
      <text id="_..._البحث_عن_رؤية" data-name="... البحث عن رؤية" transform="translate(1458 47.196)" fill="#3c4bff" font-size="14" font-family="SegoeUI, Segoe UI"><tspan x="-99.08" y="0">...</tspan><tspan y="0" font-family="DroidArabicKufi, Droid Arabic Kufi"> </tspan><tspan y="0" font-family="DroidArabicKufi, Droid Arabic Kufi">البحث عن رؤية</tspan></text>
    </g>
  </g>
</svg>
