<svg xmlns="http://www.w3.org/2000/svg" xmlns:xlink="http://www.w3.org/1999/xlink" width="1645" height="130" viewBox="0 0 1645 130">
  <defs>
    <style>
      .cls-1 {
        fill: #fff;
        stroke: #3c4bff;
        stroke-miterlimit: 10;
        stroke-width: 0.5px;
      }

      .cls-2, .cls-5, .cls-6 {
        fill: #3c4bff;
      }

      .cls-2, .cls-3, .cls-6 {
        font-size: 24px;
      }

      .cls-2, .cls-3 {
        font-family: DroidArabicKufi, Droid Arabic Kufi;
      }

      .cls-3 {
        fill: #565b6f;
      }

      .cls-4, .cls-8 {
        fill: none;
      }

      .cls-4 {
        stroke: #bcbcbc;
        stroke-width: 2px;
      }

      .cls-6 {
        font-family: SegoeUI, Segoe UI;
      }

      .cls-7 {
        stroke: none;
      }

      .cls-9 {
        filter: url(#Rectangle);
      }
    </style>
    <filter id="Rectangle" x="0" y="0" width="1645" height="130" filterUnits="userSpaceOnUse">
      <feOffset dy="9" input="SourceAlpha"/>
      <feGaussianBlur stdDeviation="7.5" result="blur"/>
      <feFlood flood-opacity="0.086"/>
      <feComposite operator="in" in2="blur"/>
      <feComposite in="SourceGraphic"/>
    </filter>
  </defs>
  <g id="details" transform="translate(-137.5 -215.5)">
    <g class="cls-9" transform="matrix(1, 0, 0, 1, 137.5, 215.5)">
      <g id="Rectangle-2" data-name="Rectangle" class="cls-1" transform="translate(22.5 13.5)">
        <path class="cls-7" d="M0,0H1600a0,0,0,0,1,0,0V80a5,5,0,0,1-5,5H5a5,5,0,0,1-5-5V0A0,0,0,0,1,0,0Z"/>
        <path class="cls-8" d="M.5.25h1599a.25.25,0,0,1,.25.25V80a4.75,4.75,0,0,1-4.75,4.75H5A4.75,4.75,0,0,1,.25,80V.5A.25.25,0,0,1,.5.25Z"/>
      </g>
    </g>
    <text id="رؤية_مجانية" data-name="رؤية مجانية" class="cls-2" transform="translate(1544 277)"><tspan x="0" y="0">رؤية مجانية</tspan></text>
    <text id="تم_الرد" data-name="تم الرد" class="cls-3" transform="translate(944 280)"><tspan x="0" y="0">تم الرد</tspan></text>
    <path id="Path_3581" data-name="Path 3581" class="cls-4" d="M0,0H25.256" transform="translate(1344.676 285.756) rotate(-90)"/>
    <path id="Path_3582" data-name="Path 3582" class="cls-4" d="M0,0H25.256" transform="translate(576.701 285.756) rotate(-90)"/>
    <path id="ic_visibility_24px" class="cls-5" d="M22.255,4.5A22.852,22.852,0,0,0,1,18.992a22.833,22.833,0,0,0,42.509,0A22.852,22.852,0,0,0,22.255,4.5Zm0,24.153a9.661,9.661,0,1,1,9.661-9.661A9.665,9.665,0,0,1,22.255,28.653Zm0-15.458a5.8,5.8,0,1,0,5.8,5.8A5.789,5.789,0,0,0,22.255,13.2Z" transform="translate(235.751 254.715)"/>
    <text id="_15" data-name="15" class="cls-6" transform="translate(324.199 281.954)"><tspan x="-25.875" y="0">15</tspan></text>
  </g>
</svg>
