<svg xmlns="http://www.w3.org/2000/svg" xmlns:xlink="http://www.w3.org/1999/xlink" width="1964" height="354" viewBox="0 10 1964 354">
  <defs>
    <style>
      .cls-1, .cls-12, .cls-4, .cls-5 {
        fill: #fff;
      }

      .cls-2 {
        fill: #e2e2e2;
      }

      .cls-10, .cls-14, .cls-3, .cls-6, .cls-9 {
        fill: #3c4bff;
      }

      .cls-3 {
        stroke: #b0b3d0;
      }

      .cls-3, .cls-5 {
        stroke-width: 0.5px;
      }

      .cls-4 {
        font-size: 32px;
      }

      .cls-12, .cls-15, .cls-4, .cls-6, .cls-7 {
        font-family: DroidArabicKufi, Droid Arabic Kufi;
      }

      .cls-5 {
        stroke: #3c4bff;
      }

      .cls-13, .cls-5 {
        stroke-miterlimit: 10;
      }

      .cls-10, .cls-6, .cls-7 {
        font-size: 24px;
      }

      .cls-7 {
        fill: #565b6f;
      }

      .cls-13, .cls-17, .cls-8 {
        fill: none;
      }

      .cls-8 {
        stroke: #bcbcbc;
        stroke-width: 2px;
      }

      .cls-10, .cls-14 {
        font-family: SegoeUI, Segoe UI;
      }

      .cls-11 {
        fill: #00c248;
      }

      .cls-12 {
        font-size: 15px;
      }

      .cls-13 {
        stroke: #fff;
        stroke-width: 0.25px;
      }

      .cls-14 {
        font-size: 14px;
      }

      .cls-16 {
        stroke: none;
      }

      .cls-18 {
        filter: url(#Rectangle_1447);
      }

      .cls-19 {
        filter: url(#Ellipse_313);
      }

      .cls-20 {
        filter: url(#Rectangle);
      }

      .cls-21 {
        filter: url(#Rectangle_1577);
      }
    </style>
    <filter id="Rectangle_1577" x="0" y="0" width="1964" height="225" filterUnits="userSpaceOnUse">
      <feOffset dy="5" input="SourceAlpha"/>
      <feGaussianBlur stdDeviation="7.5" result="blur"/>
      <feFlood flood-opacity="0.161"/>
      <feComposite operator="in" in2="blur"/>
      <feComposite in="SourceGraphic"/>
    </filter>
    <filter id="Rectangle" x="159" y="224" width="1645" height="130" filterUnits="userSpaceOnUse">
      <feOffset dy="9" input="SourceAlpha"/>
      <feGaussianBlur stdDeviation="7.5" result="blur-2"/>
      <feFlood flood-opacity="0.086"/>
      <feComposite operator="in" in2="blur-2"/>
      <feComposite in="SourceGraphic"/>
    </filter>
    <filter id="Ellipse_313" x="900.5" y="258.5" width="49" height="49" filterUnits="userSpaceOnUse">
      <feOffset dy="3" input="SourceAlpha"/>
      <feGaussianBlur stdDeviation="3" result="blur-3"/>
      <feFlood flood-opacity="0.161"/>
      <feComposite operator="in" in2="blur-3"/>
      <feComposite in="SourceGraphic"/>
    </filter>
    <filter id="Rectangle_1447" x="1146.078" y="6" width="376.861" height="96.482" filterUnits="userSpaceOnUse">
      <feOffset dy="3" input="SourceAlpha"/>
      <feGaussianBlur stdDeviation="7.5" result="blur-4"/>
      <feFlood flood-opacity="0.129"/>
      <feComposite operator="in" in2="blur-4"/>
      <feComposite in="SourceGraphic"/>
    </filter>
  </defs>
  <g id="Group_1699" data-name="Group 1699" transform="translate(21.5 8.5)">
    <g class="cls-21" transform="matrix(1, 0, 0, 1, -21.5, -8.5)">
      <rect id="Rectangle_1577-2" data-name="Rectangle 1577" class="cls-1" width="1919" height="180" rx="24" transform="translate(22.5 17.5)"/>
    </g>
    <g id="Group_1674" data-name="Group 1674" transform="translate(-377.887 -293)">
      <rect id="Rectangle_1575" data-name="Rectangle 1575" class="cls-2" width="238" height="71" rx="10" transform="translate(1219.886 400)"/>
      <g id="Rectangle_1576" data-name="Rectangle 1576" class="cls-3" transform="translate(1217.886 397)">
        <rect class="cls-16" width="238" height="71" rx="10"/>
        <rect class="cls-17" x="0.25" y="0.25" width="237.5" height="70.5" rx="9.75"/>
      </g>
    </g>
    <text id="بيانات_الطلب" data-name="بيانات الطلب" class="cls-4" transform="translate(872 152)"><tspan x="0" y="0">بيانات الطلب</tspan></text>
    <g class="cls-20" transform="matrix(1, 0, 0, 1, -21.5, -8.5)">
      <g id="Rectangle-2" data-name="Rectangle" class="cls-5" transform="translate(181.5 237.5)">
        <path class="cls-16" d="M0,0H1600a0,0,0,0,1,0,0V80a5,5,0,0,1-5,5H5a5,5,0,0,1-5-5V0A0,0,0,0,1,0,0Z"/>
        <path class="cls-17" d="M.5.25h1599a.25.25,0,0,1,.25.25V80a4.75,4.75,0,0,1-4.75,4.75H5A4.75,4.75,0,0,1,.25,80V.5A.25.25,0,0,1,.5.25Z"/>
      </g>
    </g>
    <text id="رؤية_مجانية" data-name="رؤية مجانية" class="cls-6" transform="translate(1544 277)"><tspan x="0" y="0">رؤية مجانية</tspan></text>
    <text id="تم_الرد" data-name="تم الرد" class="cls-7" transform="translate(944 280)"><tspan x="0" y="0">تم الرد</tspan></text>
    <path id="Path_3581" data-name="Path 3581" class="cls-8" d="M0,0H25.256" transform="translate(1344.676 285.756) rotate(-90)"/>
    <path id="Path_3582" data-name="Path 3582" class="cls-8" d="M0,0H25.256" transform="translate(576.701 285.756) rotate(-90)"/>
    <path id="ic_visibility_24px" class="cls-9" d="M22.255,4.5A22.852,22.852,0,0,0,1,18.992a22.833,22.833,0,0,0,42.509,0A22.852,22.852,0,0,0,22.255,4.5Zm0,24.153a9.661,9.661,0,1,1,9.661-9.661A9.665,9.665,0,0,1,22.255,28.653Zm0-15.458a5.8,5.8,0,1,0,5.8,5.8A5.789,5.789,0,0,0,22.255,13.2Z" transform="translate(235.751 254.715)"/>
    <text id="_15" data-name="15" class="cls-10" transform="translate(324.199 281.954)"><tspan x="-25.875" y="0">15</tspan></text>
    <g id="Group_1675" data-name="Group 1675" transform="translate(888.136 255.784)">
      <g class="cls-19" transform="matrix(1, 0, 0, 1, -909.64, -264.28)">
        <circle id="Ellipse_313-2" data-name="Ellipse 313" class="cls-11" cx="15.5" cy="15.5" r="15.5" transform="translate(909.5 264.5)"/>
      </g>
      <path id="Path_3481" data-name="Path 3481" class="cls-1" d="M3.7,10.616l20.617-1.2,0-.761L3.717,9,4.666.724,3.74,0,0,10.7Z" transform="matrix(0.788, -0.616, 0.616, 0.788, 1.485, 17.195)"/>
    </g>
    <path id="Rectangle_157" data-name="Rectangle 157" class="cls-9" d="M0,0H1920a0,0,0,0,1,0,0V62a24,24,0,0,1-24,24H24A24,24,0,0,1,0,62V0A0,0,0,0,1,0,0Z"/>
    <path id="ic_home_24px" class="cls-1" d="M16.571,33.964V23.035h7.286V33.964h9.107V19.393h5.464L20.214,3,2,19.393H7.464V33.964Z" transform="translate(1775.671 22)"/>
    <text id="الرئيسية" class="cls-12" transform="translate(1709 52.854)"><tspan x="0" y="0">الرئيسية</tspan></text>
    <text id="اتصل_بنا" data-name="اتصل بنا" class="cls-12" transform="translate(1542 52.854)"><tspan x="0" y="0">اتصل بنا</tspan></text>
    <path id="ic_email_24px" class="cls-1" d="M33.238,4H5.471A3.466,3.466,0,0,0,2.017,7.471L2,28.3a3.481,3.481,0,0,0,3.471,3.471H33.238A3.481,3.481,0,0,0,36.709,28.3V7.471A3.481,3.481,0,0,0,33.238,4Zm0,6.942L19.354,19.619,5.471,10.942V7.471l13.883,8.677L33.238,7.471Z" transform="translate(1606.571 26.102)"/>
    <g id="_25549-NVP68P_Recovered_" data-name="25549-NVP68P [Recovered]" transform="translate(102.861 5.298)">
      <path id="Path_3501" data-name="Path 3501" class="cls-1" d="M113.469,176.4a37.675,37.675,0,0,1,30.278-58.855,37.675,37.675,0,1,0-3.658,75.071A37.594,37.594,0,0,1,113.469,176.4Z" transform="translate(-101.38 -117.25)"/>
      <line id="Line_34" data-name="Line 34" class="cls-13" x2="63.361" transform="translate(14.676 53.707)"/>
      <path id="Path_3502" data-name="Path 3502" class="cls-1" d="M160.97,302.356a.942.942,0,0,1,.135-.261c.038-.041.041,0,0,.135a.552.552,0,0,0,0,.336c.038.091.072.179.11.267a1.884,1.884,0,0,0,.094.2,1.1,1.1,0,0,1,.057.141.288.288,0,0,1,.016.126.628.628,0,0,1-.041.166.819.819,0,0,1-.138.289.458.458,0,0,1-.254.119l-.254.06c-.113.025-.232.053-.361.075s-.264.047-.4.06a1.57,1.57,0,0,1-.364,0,1.1,1.1,0,0,1-.314-.082.734.734,0,0,1-.207-.151l.031-.235a.794.794,0,0,1-.113-.672,1.813,1.813,0,0,1,.207-.446l.148-.2a.409.409,0,0,1,.066-.072v.025c0,.025-.019.047-.031.078a1.15,1.15,0,0,1-.1.163,1.837,1.837,0,0,0-.151.261,1.221,1.221,0,0,0-.1.314.471.471,0,0,0,.047.314.527.527,0,0,0,.276.257,1.173,1.173,0,0,0,.364.082,1.833,1.833,0,0,0,.449-.031l.458-.075.333-.057a1.374,1.374,0,0,0,.188-.041c.041,0,.047-.047,0-.1a1.9,1.9,0,0,1-.116-.21,1.94,1.94,0,0,1-.126-.345A.788.788,0,0,1,160.97,302.356Zm-.7-.213-.333.518-.584-.364.314-.487Z" transform="translate(-140.734 -243.846)"/>
      <path id="Path_3503" data-name="Path 3503" class="cls-1" d="M167.19,305.764a.885.885,0,0,1-.016.389,1.152,1.152,0,0,1-.132.264,1.4,1.4,0,0,1-.942.628.11.11,0,0,0-.022-.1.151.151,0,0,0-.1-.066l-.091-.019-.116-.025a1.986,1.986,0,0,1-.553-.188,1.074,1.074,0,0,1-.377-.383c-.056-.094-.082-.151-.072-.17s0,0,.031.041a.992.992,0,0,0,.069.1,1.275,1.275,0,0,0,.4.361,1.291,1.291,0,0,0,.584.138,1.824,1.824,0,0,0,.33-.019,1.464,1.464,0,0,0,.254-.066,1.111,1.111,0,0,0,.21-.119,1.283,1.283,0,0,0,.2-.17,1.16,1.16,0,0,0,.157-.2,1.522,1.522,0,0,0,.1-.2.738.738,0,0,0,.047-.273Q167.157,305.486,167.19,305.764Zm.066-.264a1.318,1.318,0,0,1-.176.8c-.144.091-.173.06-.085-.1a1.033,1.033,0,0,0,.141-.37.524.524,0,0,0-.063-.273l-.056.078-.066.057a.194.194,0,0,1-.126.038.279.279,0,0,1-.21-.088.314.314,0,0,1-.091-.22.627.627,0,0,1,.038-.2,1.5,1.5,0,0,1,.126-.267.377.377,0,0,1,.11-.16.107.107,0,0,1,.057-.047h.066c.078,0,.157.078.232.235a.809.809,0,0,1,.075.242v.126Zm-.276-.229a.078.078,0,0,0-.044-.075.107.107,0,0,0-.091-.038c-.056,0-.085.028-.085.091a.132.132,0,0,0,.019.078.085.085,0,0,0,.072.031.142.142,0,0,0,.075-.019.29.29,0,0,0,.053-.082Z" transform="translate(-144.733 -245.856)"/>
      <path id="Path_3504" data-name="Path 3504" class="cls-1" d="M172.994,306.433a.4.4,0,0,1,0,.276,1.482,1.482,0,0,1-.132.264,1.4,1.4,0,0,1-.942.628.11.11,0,0,0-.022-.1.151.151,0,0,0-.1-.066l-.091-.019-.116-.025a1.983,1.983,0,0,1-.553-.188,1.081,1.081,0,0,1-.38-.383c-.053-.094-.078-.151-.069-.17a.2.2,0,0,1,.028.041l.072.1a1.275,1.275,0,0,0,.4.361,1.29,1.29,0,0,0,.584.138,1.829,1.829,0,0,0,.314-.019,1.472,1.472,0,0,0,.254-.066,1.114,1.114,0,0,0,.21-.119,1.281,1.281,0,0,0,.2-.17,1.163,1.163,0,0,0,.157-.2.605.605,0,0,0,.085-.214C172.931,306.358,172.962,306.333,172.994,306.433Zm.54.17h-.192a.5.5,0,0,1-.144-.031l-.17-.078h-.053l-.082.028a.414.414,0,0,0-.079-.188l-.195-.314a.789.789,0,0,1-.044-.1l.031-.16a.474.474,0,0,1,.06-.185l.17.267.085.151a.75.75,0,0,0,.226.163.627.627,0,0,0,.264.085h.129Z" transform="translate(-148.726 -246.426)"/>
      <path id="Path_3505" data-name="Path 3505" class="cls-1" d="M181.031,306.877h-.154a.5.5,0,0,1-.48-.3.783.783,0,0,1-.182.185.5.5,0,0,1-.314.11h-.1v-.361h.1a.681.681,0,0,0,.314-.069.4.4,0,0,0,.191-.157l.057-.126.082-.195.031.031-.031.085a.193.193,0,0,1-.016.1.763.763,0,0,0,0,.085.484.484,0,0,0,.107.154.418.418,0,0,0,.292.094h.107Zm-.333.505-.191.314-.33-.21.195-.292Z" transform="translate(-155.049 -246.7)"/>
      <path id="Path_3506" data-name="Path 3506" class="cls-1" d="M184.27,305.705l-.336.21a1.212,1.212,0,0,1-.531.148V305.7a.96.96,0,0,0,.65-.2.678.678,0,0,0-.44-.261.382.382,0,0,0-.195.041.076.076,0,0,1-.041,0,.019.019,0,0,1-.022-.022.124.124,0,0,1,0-.041l.113-.254c.019-.047.122-.091.314-.135a2.411,2.411,0,0,1,.524-.063,1.57,1.57,0,0,1,.779.217c.05.031.075.06.075.075a.2.2,0,0,1-.022.06l-.122.22a4.521,4.521,0,0,0-.443.2.91.91,0,0,0,.606.138v.361a1.775,1.775,0,0,1-.493-.041A1.531,1.531,0,0,1,184.27,305.705Zm.4-.512a1.061,1.061,0,0,0-.6-.069,1.723,1.723,0,0,1,.289.223Z" transform="translate(-157.487 -245.87)"/>
      <path id="Path_3507" data-name="Path 3507" class="cls-1" d="M189.214,302.525l-.185.314-.339-.207.192-.292Zm.283,1.027a1.683,1.683,0,0,1-.063.411.879.879,0,0,1-.066.21l-.06.129a.229.229,0,0,1-.1.044.665.665,0,0,1-.229.041h-.188v-.361h.333l.138-.019a.1.1,0,0,0,.091-.078.92.92,0,0,0-.151-.465l-.148-.188.06-.163.016-.028a.252.252,0,0,1,.047-.085h0l.016-.016a.7.7,0,0,1,.176.21.732.732,0,0,1,.132.358Zm.22-1.027-.188.314-.342-.207.2-.292Z" transform="translate(-161.148 -244.21)"/>
      <path id="Path_3508" data-name="Path 3508" class="cls-1" d="M194.269,299.72a.634.634,0,0,1,0-.116c0-.016,0-.016.022,0a1.494,1.494,0,0,1,.1.345,2.1,2.1,0,0,1,.066.43,3.5,3.5,0,0,1-.025.446,1.741,1.741,0,0,0,0,.483.9.9,0,0,0,.22.6,1.074,1.074,0,0,0,.662.242v.361a1.064,1.064,0,0,1-.713-.345,1.849,1.849,0,0,1-.33-.967,5,5,0,0,1,0-.8C194.266,300,194.272,299.777,194.269,299.72Z" transform="translate(-164.968 -242.325)"/>
      <path id="Path_3509" data-name="Path 3509" class="cls-1" d="M197.841,306.224l-.188.314-.342-.2.2-.292Zm.217-1.256a1.658,1.658,0,0,1-.063.411,1.882,1.882,0,0,1-.063.2l-.063.135-.079.035a.686.686,0,0,1-.251.05h-.17v-.361h.2c.207,0,.314-.031.348-.1a1.064,1.064,0,0,0-.053-.264.6.6,0,0,0-.094-.2l-.148-.188.06-.163.016-.031.022-.044.044-.063a.575.575,0,0,1,.182.21,1.228,1.228,0,0,1,.078.192.533.533,0,0,1,.022.166Zm.286,1.256-.192.314-.348-.2.2-.292Z" transform="translate(-167.061 -245.616)"/>
      <path id="Path_3510" data-name="Path 3510" class="cls-1" d="M201.479,305.616a.562.562,0,0,1-.06.151.314.314,0,0,1-.091.063l-.873.424v-.031q0-.1.16-.2a2.711,2.711,0,0,0,.251-.116.584.584,0,0,1-.411-.2.173.173,0,0,1-.025-.091.558.558,0,0,1,.053-.2l.069-.119.094-.116c.126-.154.239-.229.342-.229a.182.182,0,0,1,.135.063.207.207,0,0,1,.057.138.477.477,0,0,1-.1.229.276.276,0,0,0-.223-.151.292.292,0,0,0-.179.072.267.267,0,0,0-.069.176c0,.053.057.1.173.154a.828.828,0,0,0,.339.075.629.629,0,0,0,.229-.038A.673.673,0,0,0,201.479,305.616Z" transform="translate(-169.202 -246)"/>
      <path id="Path_3511" data-name="Path 3511" class="cls-1" d="M205.655,300.794a.229.229,0,0,1-.107.229l-.628.292V301.3l.342-.283a.232.232,0,0,1-.132-.21.248.248,0,0,1,.182-.248.254.254,0,0,1,.075-.019.276.276,0,0,1,.195.075.238.238,0,0,1,.072.179Zm-.144,0a.113.113,0,0,0-.041-.091.151.151,0,0,0-.091-.035c-.079,0-.119.047-.119.141a.116.116,0,0,0,.132.129c.022,0,.047-.019.075-.05a.144.144,0,0,0,.044-.1Z" transform="translate(-172.282 -242.975)"/>
      <path id="Path_3512" data-name="Path 3512" class="cls-1" d="M202.727,306.433a.4.4,0,0,1,0,.276,1.31,1.31,0,0,1-.135.264,1.385,1.385,0,0,1-.942.628.119.119,0,0,0-.022-.1.157.157,0,0,0-.107-.066l-.088-.019-.119-.025a1.961,1.961,0,0,1-.549-.188,1.055,1.055,0,0,1-.38-.383c-.057-.094-.078-.151-.069-.17l.028.041.072.1a1.257,1.257,0,0,0,.427.358,1.287,1.287,0,0,0,.581.138,1.882,1.882,0,0,0,.333-.019,1.425,1.425,0,0,0,.251-.066,1.127,1.127,0,0,0,.214-.119,1.45,1.45,0,0,0,.2-.17,1.16,1.16,0,0,0,.157-.2.606.606,0,0,0,.085-.214C202.676,306.358,202.7,306.333,202.727,306.433Zm.54.17h-.192a.462.462,0,0,1-.144-.031l-.173-.078H202.7l-.078.028a.455.455,0,0,0-.078-.188l-.195-.314a.521.521,0,0,1-.047-.1l.031-.16a.534.534,0,0,1,.06-.185l.173.267.085.151a.751.751,0,0,0,.226.163.6.6,0,0,0,.264.085h.122Z" transform="translate(-169.122 -246.426)"/>
      <path id="Path_3513" data-name="Path 3513" class="cls-1" d="M210.633,299.732c0,.063,0,.289.019.675a5,5,0,0,1,0,.8,1.849,1.849,0,0,1-.33.967,1.055,1.055,0,0,1-.694.345l-.019-.361a1.074,1.074,0,0,0,.662-.242.9.9,0,0,0,.22-.6v-.483c0-.21-.022-.358-.025-.446a2.1,2.1,0,0,1,.066-.43,1.494,1.494,0,0,1,.1-.345h.022a.629.629,0,0,1-.025.122Zm.314,2.788h-.063a.581.581,0,0,1-.455-.214.46.46,0,0,1-.082-.122,1.11,1.11,0,0,1-.047-.176l-.025.088q0,.047.217-.207l.035.075a.314.314,0,0,0,.107.113l.129.063.06.016h.126Z" transform="translate(-175.5 -242.337)"/>
      <path id="Path_3514" data-name="Path 3514" class="cls-1" d="M214.824,299.732c0,.063,0,.289.019.675a5,5,0,0,1,0,.8,1.818,1.818,0,0,1-.333.967,1.058,1.058,0,0,1-.71.345v-.361a1.051,1.051,0,0,0,.656-.242.885.885,0,0,0,.223-.6c0-.113,0-.273-.019-.483s-.019-.358-.025-.446a2.108,2.108,0,0,1,.066-.43,1.436,1.436,0,0,1,.107-.345h.022A.632.632,0,0,1,214.824,299.732Z" transform="translate(-178.374 -242.337)"/>
      <path id="Path_3515" data-name="Path 3515" class="cls-1" d="M222.012,304.46l-.1-.2a.474.474,0,0,1,.047-.418.314.314,0,0,1,.27-.126.848.848,0,0,1,.4.176c.185.126.276.232.276.314a2.561,2.561,0,0,1-.1.314c-.069.019-.248.078-.534.179,0,.119,0,.179-.031.179s-.053-.044-.075-.135a1.133,1.133,0,0,0-.377.217.527.527,0,0,0-.16.4,3.138,3.138,0,0,0,.1.606c.041.166.078.336.119.509a2.3,2.3,0,0,1,.06.672q-.028.207-.047.207a1.092,1.092,0,0,1-.028-.2,2.881,2.881,0,0,0-.044-.37,6.39,6.39,0,0,1-.267-1.325,1.46,1.46,0,0,1,.129-.681.71.71,0,0,1,.358-.314Zm.484-.188c0-.028-.053-.069-.16-.116a.7.7,0,0,0-.261-.072c-.044,0-.063,0-.053.028a2.434,2.434,0,0,0,.135.283A3.078,3.078,0,0,0,222.5,304.271Zm-.314.487.119-.009c0,.057.041.113.119.17a.753.753,0,0,0,.314.066h.138v.361h-.182a.681.681,0,0,1-.314-.069.361.361,0,0,1-.195-.217.474.474,0,0,1-.028-.157v-.069a.129.129,0,0,1,.016-.085Z" transform="translate(-183.673 -245.155)"/>
      <path id="Path_3516" data-name="Path 3516" class="cls-1" d="M226.941,305.094h-.154a.5.5,0,0,1-.48-.3.847.847,0,0,1-.182.185.5.5,0,0,1-.314.11h-.1v-.361h.1a.682.682,0,0,0,.314-.069.377.377,0,0,0,.188-.157l.057-.126.085-.195.031.031-.031.085a.193.193,0,0,1-.016.1.391.391,0,0,0,0,.085.487.487,0,0,0,.11.154.417.417,0,0,0,.292.094h.107Zm-.593-1.526-.188.292-.339-.2.2-.289Zm.5,0-.192.292-.339-.2.188-.289Z" transform="translate(-186.545 -244.916)"/>
      <path id="Path_3517" data-name="Path 3517" class="cls-1" d="M230.7,305.039h-.154a.5.5,0,0,1-.48-.3.784.784,0,0,1-.182.185.5.5,0,0,1-.3.11h-.1v-.361h.1a.681.681,0,0,0,.314-.069.386.386,0,0,0,.192-.157l.056-.126.082-.195.031.031-.031.085a.193.193,0,0,1-.016.1.778.778,0,0,0,0,.085.483.483,0,0,0,.107.154.418.418,0,0,0,.292.094h.107Zm-.21-1.57-.188.314-.342-.2.2-.289Z" transform="translate(-189.131 -244.861)"/>
      <path id="Path_3518" data-name="Path 3518" class="cls-1" d="M233.48,299.685a.679.679,0,0,1-.082.345.978.978,0,0,1-.314.314,1.5,1.5,0,0,1-.427.22,1.4,1.4,0,0,1-.4.05v-.361a1.331,1.331,0,0,0,1.1-.455.1.1,0,0,0,.025-.05q0-.025-.056-.075a3.6,3.6,0,0,0-.484-.345c-.257-.16-.427-.27-.505-.33a1.991,1.991,0,0,1-.433-.424.2.2,0,0,0-.05-.028c-.031-.013-.047-.028-.047-.038,0-.314.038-.493.113-.562a5.6,5.6,0,0,1,1.256-.684,4.176,4.176,0,0,1,1.256-.433.157.157,0,0,1,.122.038.17.17,0,0,1,.035.122.87.87,0,0,1-.242.505l-.182.207a1.379,1.379,0,0,0-.195.273.219.219,0,0,1-.041.069v-.094a.814.814,0,0,1,.082-.182.767.767,0,0,1,.094-.154,4.267,4.267,0,0,0,.314-.4.04.04,0,0,0,0-.019c0-.041-.05-.06-.154-.06a4.082,4.082,0,0,0-1.149.414,6.44,6.44,0,0,0-1.256.684v.035l.314.151c.069.031.107.06.107.082s-.031.031-.088.031h-.1a1.785,1.785,0,0,0,.468.355,6.142,6.142,0,0,1,.578.364A.628.628,0,0,1,233.48,299.685Z" transform="translate(-190.723 -240.427)"/>
      <path id="Path_3519" data-name="Path 3519" class="cls-1" d="M243.826,302.356a1.036,1.036,0,0,1,.135-.261c.041-.041.044,0,0,.135a.552.552,0,0,0,0,.336c.035.091.069.179.107.267s.069.154.094.2a.813.813,0,0,1,.06.141.286.286,0,0,1,0,.126.748.748,0,0,1-.038.166.813.813,0,0,1-.141.289.446.446,0,0,1-.251.119l-.257.06c-.11.025-.229.053-.361.075s-.264.047-.4.06a1.6,1.6,0,0,1-.367,0,1.105,1.105,0,0,1-.314-.082.652.652,0,0,1-.207-.151l.028-.235a.8.8,0,0,1-.11-.672,1.813,1.813,0,0,1,.207-.446,2.435,2.435,0,0,1,.148-.2.255.255,0,0,1,.066-.072v.025a.239.239,0,0,1-.028.078,1.561,1.561,0,0,1-.1.163,1.841,1.841,0,0,0-.151.261,1.365,1.365,0,0,0-.1.314.512.512,0,0,0,.047.314.531.531,0,0,0,.279.257,1.155,1.155,0,0,0,.361.082,1.858,1.858,0,0,0,.452-.031l.458-.075.33-.057a1.165,1.165,0,0,0,.188-.041c.044,0,.047-.047.016-.1a1.852,1.852,0,0,1-.119-.21,1.959,1.959,0,0,1-.122-.345A.807.807,0,0,1,243.826,302.356Zm-.7-.213-.342.518-.584-.364.314-.487Z" transform="translate(-197.565 -243.846)"/>
      <path id="Path_3520" data-name="Path 3520" class="cls-1" d="M250.353,300.739c0,.063,0,.289.019.675a4.885,4.885,0,0,1,0,.8,1.507,1.507,0,0,1-.4.964,1.57,1.57,0,0,1-.873.339,1.958,1.958,0,0,0,.7-.4,1.256,1.256,0,0,0,.418-.8c0-.113,0-.273-.019-.484s-.022-.358-.025-.446a2.107,2.107,0,0,1,.066-.43,1.215,1.215,0,0,1,.107-.342h.022A.63.63,0,0,1,250.353,300.739Zm-.628,3.011v.031c0,.06-.057.1-.163.129h-.119c-.016,0-.025,0-.028.025l-.019-.019.022-.028a.51.51,0,0,1,.088-.031.16.16,0,0,0,.094-.022v-.022h0a.113.113,0,0,1-.078-.063.156.156,0,0,1,.041-.11.144.144,0,0,1,.107-.075v.075a.147.147,0,0,0-.053,0l-.022.035a.193.193,0,0,0,.063.038.091.091,0,0,1,.063.038Z" transform="translate(-202.591 -243.03)"/>
      <path id="Path_3521" data-name="Path 3521" class="cls-1" d="M254.529,305.8v.022a1.353,1.353,0,0,1-.044.286,1.1,1.1,0,0,1-.107.292,1.34,1.34,0,0,1-.6.314c-.154.053-.279.094-.374.116a5.122,5.122,0,0,1-1.089.116h-.276l-.424-.016a2.792,2.792,0,0,1-.392-.031c.022-.148-.173-.267-.581-.361a5.054,5.054,0,0,1-1.08-.364,3.26,3.26,0,0,1-.609-.348,7.892,7.892,0,0,0,1.931.669l.314.041.383.038h.213c.267,0,.418.016.455.016q.367,0,.628-.019a3.72,3.72,0,0,0,.531-.078,2.805,2.805,0,0,0,.656-.214.486.486,0,0,0,.22-.176c0-.025-.038-.056-.116-.091h-.038l-.075-.025-.154-.038c-.094-.022-.223-.063-.386-.116s-.229-.126-.242-.182v-.031a2.412,2.412,0,0,1,.035-.279,1.015,1.015,0,0,1,.06-.257,1.033,1.033,0,0,1,.436-.493.942.942,0,0,1,.487-.154.286.286,0,0,1,.188.053l.028.085v.129a.292.292,0,0,1-.038.185l-.069-.022-.066-.019h-.144a.813.813,0,0,0-.527.217c-.135.113-.2.2-.195.248s.107.122.276.176l.452.135C254.391,305.644,254.495,305.716,254.529,305.8Z" transform="translate(-202.488 -245.649)"/>
      <path id="Path_3522" data-name="Path 3522" class="cls-1" d="M267.168,299.72a.631.631,0,0,1,0-.116c0-.016,0-.016.022,0a1.3,1.3,0,0,1,.107.345,2.105,2.105,0,0,1,.066.43,3.5,3.5,0,0,1-.025.446,3.587,3.587,0,0,0-.019.483.9.9,0,0,0,.223.6,1.055,1.055,0,0,0,.659.242v.361a1.058,1.058,0,0,1-.71-.345,1.849,1.849,0,0,1-.33-.967,4.548,4.548,0,0,1,0-.8C267.165,300,267.171,299.777,267.168,299.72Z" transform="translate(-214.97 -242.325)"/>
      <path id="Path_3523" data-name="Path 3523" class="cls-1" d="M270.751,306.224l-.191.314-.339-.2.195-.292Zm.217-1.256a1.685,1.685,0,0,1-.066.411,1.369,1.369,0,0,1-.063.2l-.06.135-.082.035a.662.662,0,0,1-.251.05h-.166v-.361h.2c.2,0,.314-.031.348-.1a1.454,1.454,0,0,0-.053-.264.67.67,0,0,0-.094-.2l-.151-.188.06-.163.019-.031.019-.044.047-.063a.6.6,0,0,1,.179.21,1.263,1.263,0,0,1,.082.191.534.534,0,0,1,.031.166Zm.283,1.256-.188.314-.348-.2.2-.292Z" transform="translate(-217.08 -245.616)"/>
      <path id="Path_3524" data-name="Path 3524" class="cls-1" d="M275.007,303.077a2.091,2.091,0,0,1-.314,1.093c-.2.336-.427.5-.678.5a.849.849,0,0,1-.314-.06l-.122-.047a1.292,1.292,0,0,1-.179-.094l.05-.041.154.05h.154a.857.857,0,0,0,.361-.094,1.049,1.049,0,0,0,.333-.223,1.7,1.7,0,0,0,.292-.4.941.941,0,0,0,.132-.44v-.151l-.031-.053-.06.075-.066.06a.185.185,0,0,1-.122.038.286.286,0,0,1-.214-.088.314.314,0,0,1-.091-.22.659.659,0,0,1,.038-.207,1.59,1.59,0,0,1,.126-.264.407.407,0,0,1,.11-.163.116.116,0,0,1,.056-.044h.069c.075,0,.154.078.229.232a.865.865,0,0,1,.075.245l.016.126Zm-.791-1.312v.047c0,.091-.082.154-.245.191H273.8a.091.091,0,0,0-.044.038l-.028-.028.031-.044a.628.628,0,0,1,.129-.041.252.252,0,0,0,.148-.038v-.031s0-.019-.016-.022a.157.157,0,0,1-.116-.091.233.233,0,0,1,.06-.163c.06-.075.107-.113.16-.113v.11a.2.2,0,0,0-.082.025l-.031.047q0,.022.094.057A.383.383,0,0,1,274.216,301.765Zm.48,1.064a.091.091,0,0,0-.044-.075.107.107,0,0,0-.091-.038c-.057,0-.085.028-.085.091a.129.129,0,0,0,.022.079.079.079,0,0,0,.069.031.154.154,0,0,0,.078-.019.371.371,0,0,0,.047-.069Z" transform="translate(-219.262 -243.613)"/>
      <path id="Path_3525" data-name="Path 3525" class="cls-1" d="M281.682,300.065a.235.235,0,0,1-.1.229l-.628.289h0l.339-.283a.235.235,0,0,1-.129-.21.248.248,0,0,1,.179-.248.376.376,0,0,1,.075-.022.276.276,0,0,1,.195.075.242.242,0,0,1,.072.17Zm-.144,0a.11.11,0,0,0-.041-.091.132.132,0,0,0-.091-.038c-.078,0-.116.047-.116.141a.116.116,0,0,0,.132.129.129.129,0,0,0,.075-.047.151.151,0,0,0,.041-.1Z" transform="translate(-224.442 -242.481)"/>
      <path id="Path_3526" data-name="Path 3526" class="cls-1" d="M279.363,305.431a.574.574,0,0,1,0,.135,1.178,1.178,0,0,1-.031.21,1.676,1.676,0,0,1-.075.261,1.3,1.3,0,0,1-.138.27,1.416,1.416,0,0,1-.967.628.119.119,0,0,0-.019-.1.173.173,0,0,0-.11-.066l-.091-.019-.122-.025a2.113,2.113,0,0,1-.565-.195,1.076,1.076,0,0,1-.386-.392c-.057-.094-.082-.151-.072-.173a.287.287,0,0,1,.031.041c.019.031.044.066.072.1a1.177,1.177,0,0,0,1.011.512,1.693,1.693,0,0,0,.339-.022,1.128,1.128,0,0,0,.257-.066,1.253,1.253,0,0,0,.217-.119,1.549,1.549,0,0,0,.2-.176,1.09,1.09,0,0,0,.16-.2.747.747,0,0,0,.088-.22.847.847,0,0,0,0-.38,1.546,1.546,0,0,1-.063-.314.943.943,0,0,1,0-.235,1,1,0,0,1,.075-.195c.041-.075.069-.116.091-.126s.031,0,.025.016a.782.782,0,0,0,0,.427A1.931,1.931,0,0,0,279.363,305.431Z" transform="translate(-221.583 -245.731)"/>
      <path id="Path_3527" data-name="Path 3527" class="cls-1" d="M286.385,308.071h-.063a2.058,2.058,0,0,0-.6.06c-.078.022-.113.053-.1.091l.264.1.21.091a.54.54,0,0,1,.276.223v.025a2.2,2.2,0,0,1-.044.239.785.785,0,0,1-.1.283c-.019.044-.113.11-.286.195a2.494,2.494,0,0,1-.691.245,4.863,4.863,0,0,1-1.093.122h-.276l-.424-.016-.392-.031c.038-.141-.157-.254-.581-.342a3.97,3.97,0,0,1-1.086-.367,2.266,2.266,0,0,1-.549-.355l.534.267a5.474,5.474,0,0,0,1.472.389,9.7,9.7,0,0,0,1.13.085,6.167,6.167,0,0,0,.728-.025,4.659,4.659,0,0,0,.531-.069,3.3,3.3,0,0,0,.4-.1,1.476,1.476,0,0,0,.283-.129c.129-.069.2-.129.217-.182s-.041-.069-.126-.122a.772.772,0,0,0-.173-.082l-.333-.116a.459.459,0,0,1-.119-.072.1.1,0,0,1-.044-.075.388.388,0,0,1,0-.082,1.038,1.038,0,0,1,.047-.148,1.658,1.658,0,0,1,.1-.229.581.581,0,0,1,.195-.138,1.036,1.036,0,0,1,.443-.1h.245Z" transform="translate(-224.366 -247.894)"/>
      <path id="Path_3528" data-name="Path 3528" class="cls-1" d="M299.646,302.242a1.255,1.255,0,0,1-.113.458,1.357,1.357,0,0,1-.138.276.521.521,0,0,1-.214.122l-.173.05h-.669v-.361h.427a1.177,1.177,0,0,0,.509-.079.336.336,0,0,0,.16-.163.2.2,0,0,0,.028-.1v-.063l-.022-.063v-.06l-.035-.063-.063.122a.263.263,0,0,1-.056.1.37.37,0,0,1-.286.122.458.458,0,0,1-.257-.085.314.314,0,0,1-.126-.292.871.871,0,0,1,.028-.213q.035-.11.094-.254a1.074,1.074,0,0,1,.248-.361.241.241,0,0,1,.1-.038.166.166,0,0,1,.088.022.314.314,0,0,1,.1.053l.066.069a1.018,1.018,0,0,1,.248.418A1.094,1.094,0,0,1,299.646,302.242Zm-.424-1.507-.191.314-.342-.2.195-.3Zm.1,1.328V302a.492.492,0,0,0-.157-.173.672.672,0,0,0-.113-.06.285.285,0,0,0-.1-.019.248.248,0,0,0-.126.06.182.182,0,0,0-.05.141c0,.035.031.075.094.116a.628.628,0,0,0,.229.047.709.709,0,0,0,.223-.047Z" transform="translate(-236.372 -242.982)"/>
      <path id="Path_3529" data-name="Path 3529" class="cls-1" d="M304.014,308.085h-.063a2.059,2.059,0,0,0-.6.06c-.078.022-.113.053-.1.091l.261.1.214.091a.556.556,0,0,1,.276.223v.025a2.2,2.2,0,0,1-.044.239.787.787,0,0,1-.1.283c-.019.044-.113.11-.286.195a2.493,2.493,0,0,1-.691.245,4.858,4.858,0,0,1-1.093.122H301.5l-.424-.016-.392-.031c.038-.141-.157-.254-.581-.342a3.994,3.994,0,0,1-1.089-.367,2.292,2.292,0,0,1-.546-.355l.534.267a5.471,5.471,0,0,0,1.472.389,9.585,9.585,0,0,0,1.127.085,6.231,6.231,0,0,0,.732-.025,4.661,4.661,0,0,0,.531-.069,3.325,3.325,0,0,0,.4-.1,1.48,1.48,0,0,0,.289-.122c.129-.069.2-.129.217-.182s-.041-.069-.126-.122a.78.78,0,0,0-.173-.082l-.333-.116a.458.458,0,0,1-.119-.072.1.1,0,0,1-.044-.075.376.376,0,0,1,0-.082,1.035,1.035,0,0,1,.047-.148,1.653,1.653,0,0,1,.1-.229.581.581,0,0,1,.195-.138,1.036,1.036,0,0,1,.443-.1H304Z" transform="translate(-236.461 -247.907)"/>
      <path id="Path_3530" data-name="Path 3530" class="cls-1" d="M316.728,303.49a1.547,1.547,0,0,1-.069.4.894.894,0,0,1-.154.345l-.207.063h-.1a.445.445,0,0,1-.091,0H316v-.361h.166c.251,0,.389-.031.414-.1a.405.405,0,0,0,0-.113.553.553,0,0,0-.05-.141.629.629,0,0,0-.119-.21l-.173-.188a.6.6,0,0,1,.019-.066.383.383,0,0,1,.038-.082l.047-.091.053-.063a.628.628,0,0,1,.223.21.814.814,0,0,1,.1.185A.509.509,0,0,1,316.728,303.49Zm-.138-1.058-.188.314-.339-.2.191-.3Z" transform="translate(-248.487 -244.148)"/>
      <path id="Path_3531" data-name="Path 3531" class="cls-1" d="M318.76,306.77a.839.839,0,0,1-.016.389,1.257,1.257,0,0,1-.132.267,1.406,1.406,0,0,1-.942.628.12.12,0,0,0-.019-.1.166.166,0,0,0-.107-.066l-.088-.019-.119-.025a1.983,1.983,0,0,1-.553-.188,1.074,1.074,0,0,1-.377-.383c-.057-.094-.082-.148-.072-.166s0,0,.031.038a1.178,1.178,0,0,0,.069.1,1.134,1.134,0,0,0,.986.5,1.885,1.885,0,0,0,.333-.019,1.5,1.5,0,0,0,.251-.066,1.111,1.111,0,0,0,.21-.119,1.281,1.281,0,0,0,.2-.17.942.942,0,0,0,.157-.2,1.52,1.52,0,0,0,.1-.2.726.726,0,0,0,.047-.273C318.741,306.579,318.741,306.6,318.76,306.77Zm.066-.264a1.312,1.312,0,0,1-.176.8q-.217.141-.085-.1a1.032,1.032,0,0,0,.141-.371.534.534,0,0,0-.06-.27l-.06.075-.066.06a.189.189,0,0,1-.126.035.28.28,0,0,1-.21-.088.314.314,0,0,1-.091-.22.627.627,0,0,1,.038-.2,1.387,1.387,0,0,1,.126-.264.386.386,0,0,1,.11-.163.088.088,0,0,1,.057-.044h.069c.075,0,.154.078.229.235a.8.8,0,0,1,.075.245l.016.122Zm-.276-.229a.091.091,0,0,0-.044-.075.107.107,0,0,0-.091-.038c-.057,0-.085.031-.085.091a.15.15,0,0,0,.019.082.1.1,0,0,0,.072.031.136.136,0,0,0,.075-.022.244.244,0,0,0,.053-.063Z" transform="translate(-248.716 -246.549)"/>
      <path id="Path_3532" data-name="Path 3532" class="cls-1" d="M325.311,305.094h-.157a.5.5,0,0,1-.48-.3.836.836,0,0,1-.179.185.508.508,0,0,1-.314.11h-.1v-.361h.1a.682.682,0,0,0,.314-.069.377.377,0,0,0,.188-.157l.057-.126.085-.195.031.031-.031.085a.165.165,0,0,1-.019.1.77.77,0,0,0,0,.085.484.484,0,0,0,.107.154.421.421,0,0,0,.3.094h.1Zm-.581-1.526-.188.292-.339-.2.195-.289Zm.5,0-.188.292-.339-.2.188-.289Z" transform="translate(-254.03 -244.916)"/>
      <path id="Path_3533" data-name="Path 3533" class="cls-1" d="M329.146,302.242a1.257,1.257,0,0,1-.113.458,1.4,1.4,0,0,1-.135.276.562.562,0,0,1-.217.122l-.173.05h-.669v-.361h.43a1.177,1.177,0,0,0,.509-.079.336.336,0,0,0,.16-.163.2.2,0,0,0,.028-.1v-.063l-.025-.063v-.06l-.035-.063-.066.122a.229.229,0,0,1-.053.1.377.377,0,0,1-.286.122.449.449,0,0,1-.257-.085.314.314,0,0,1-.126-.292.868.868,0,0,1,.028-.213,1.641,1.641,0,0,1,.094-.254,1.074,1.074,0,0,1,.248-.361.242.242,0,0,1,.1-.038.172.172,0,0,1,.088.022.315.315,0,0,1,.1.053l.063.069a.983.983,0,0,1,.248.418A1.023,1.023,0,0,1,329.146,302.242Zm-.424-1.507-.188.314-.342-.2.195-.3Zm.1,1.328V302a.54.54,0,0,0-.16-.173.5.5,0,0,0-.113-.06.267.267,0,0,0-.1-.019.248.248,0,0,0-.126.06.182.182,0,0,0-.05.141c0,.035.031.075.094.116a.628.628,0,0,0,.229.047.709.709,0,0,0,.232-.047Z" transform="translate(-256.61 -242.982)"/>
      <path id="Path_3534" data-name="Path 3534" class="cls-1" d="M332.993,299.607c0,.063,0,.289.019.675a4.988,4.988,0,0,1,0,.8,1.507,1.507,0,0,1-.4.964,1.535,1.535,0,0,1-.87.339,1.959,1.959,0,0,0,.7-.4,1.256,1.256,0,0,0,.414-.8c0-.113,0-.273-.016-.483s-.022-.358-.025-.446a2.109,2.109,0,0,1,.066-.43,1.216,1.216,0,0,1,.107-.342H333A.63.63,0,0,1,332.993,299.607Zm.06-.421v.031a.129.129,0,0,1-.063.094.293.293,0,0,1-.113.044h-.113l-.031.028-.025-.019.031-.035a.192.192,0,0,1,.088-.028.161.161,0,0,0,.1-.028v-.022a.035.035,0,0,0,0-.016.212.212,0,0,1-.063-.022l-.022-.028v-.031a.21.21,0,0,1,.044-.107.154.154,0,0,1,.113-.078v.072a.126.126,0,0,0-.05.025s0,.016-.025.041,0,0,.041.025S333.043,299.165,333.052,299.187Z" transform="translate(-259.285 -241.898)"/>
      <path id="Path_3535" data-name="Path 3535" class="cls-1" d="M141.4,217.938h2.512q5.771,7.654,18.709,7.651a25.461,25.461,0,0,0-2.3-9.482,18.108,18.108,0,0,0-4.361-6.028h9.971v1.67a.348.348,0,0,1-.348.345h-5.315a23.349,23.349,0,0,1,3.221,6.436,22.743,22.743,0,0,1,1.162,7.074V227.6H162Q148.285,227.608,141.4,217.938Z" transform="translate(-128.705 -180.916)"/>
      <path id="Path_3536" data-name="Path 3536" class="cls-1" d="M215.43,245.185v-2.019a8.663,8.663,0,0,0,3.733-3.071,7.4,7.4,0,0,0,1.783-4.4h2.019v13.959a8.967,8.967,0,0,1-3.246-1.761,11.2,11.2,0,0,1-2.512-2.713H219.6a2.908,2.908,0,0,0,1.416,1.275V240.9a11.484,11.484,0,0,1-2.436,2.666A6.959,6.959,0,0,1,215.43,245.185Z" transform="translate(-179.492 -198.492)"/>
      <path id="Path_3537" data-name="Path 3537" class="cls-1" d="M239.35,227.608V225.59q2.879-1.46,2.876-6.954V210.08h1.994v17.528h-1.994V225.5A4.217,4.217,0,0,1,239.35,227.608Z" transform="translate(-195.902 -180.916)"/>
      <path id="Path_3538" data-name="Path 3538" class="cls-1" d="M254.79,242.907v-2.019H273a17.708,17.708,0,0,0-7.155-4.939,23.861,23.861,0,0,0-8.624-1.551V232.38a24.25,24.25,0,0,1,11.3,2.6,20.533,20.533,0,0,1,8.392,7.931Z" transform="translate(-206.495 -196.215)"/>
      <path id="Path_3539" data-name="Path 3539" class="cls-1" d="M210.57,173.247q3.174-2.132,3.177-10.6v-6.26h1.981v9.322a11.264,11.264,0,0,1-2.364,7.535Z" transform="translate(-176.158 -144.082)"/>
      <path id="Path_3540" data-name="Path 3540" class="cls-1" d="M226.81,167.144v-2.016q2.9-1.159,3.768-5.937a14.169,14.169,0,0,0,.232-2.571h2.025v7.928q3.768-2.317,3.768-7.928h1.947v7.811q2.578-1.507,3.432-5.611a11.024,11.024,0,0,0,.21-2.2h2.016v10.524h-1.994v-3.642a8.4,8.4,0,0,1-5.61,3.871v-3.617a8.455,8.455,0,0,1-2.552,2.355,8.109,8.109,0,0,1-3.221,1.24v-3.2a4.06,4.06,0,0,1-1.171,1.551,6.484,6.484,0,0,1-1.749,1.137A3.561,3.561,0,0,1,226.81,167.144Z" transform="translate(-187.299 -144.24)"/>
      <path id="Path_3541" data-name="Path 3541" class="cls-1" d="M282.2,157.869v-2.016h2.085a10.32,10.32,0,0,1,2.389-6.1,9.358,9.358,0,0,1,4.289-2.992v11.1Zm4.034-2.016h2.713v-5.589A7.29,7.29,0,0,0,286.234,155.853ZM288.6,144.4a1.3,1.3,0,0,1,2.239-.9,1.344,1.344,0,0,1,.4.9,1.121,1.121,0,0,1-.408.87,1.7,1.7,0,0,1-.942.427,1.325,1.325,0,0,1-.857-.392A1.193,1.193,0,0,1,288.6,144.4Z" transform="translate(-225.299 -134.965)"/>
      <path id="Path_3542" data-name="Path 3542" class="cls-1" d="M173.783,225.37q.188,0,.217.085a.688.688,0,0,0-.085.1,2.449,2.449,0,0,1-.264.273l-.314.261a1.237,1.237,0,0,0-.314.289l-.2.22-.245.377a1.187,1.187,0,0,0-.188.628.44.44,0,0,0,.261.361l.477.144a.405.405,0,0,1,.267.254,1.368,1.368,0,0,1,.082.515v.374a.853.853,0,0,1-.072.348,2.825,2.825,0,0,1-.465.942,4.1,4.1,0,0,1-1.664,1.215c-.819.386-1.322.543-1.507.465q-.085-.314.819-.659a3.385,3.385,0,0,0,1.152-.628,1.8,1.8,0,0,0,.355-.43.973.973,0,0,0,.107-.4.537.537,0,0,0-.377-.48.961.961,0,0,1-.462-.273l-.116-.449-.044-.509a3.2,3.2,0,0,1,.788-2.091,2.3,2.3,0,0,1,1.8-.939Z" transform="translate(-148.159 -191.405)"/>
    </g>
    <g class="cls-18" transform="matrix(1, 0, 0, 1, -21.5, -8.5)">
      <rect id="Rectangle_1447-2" data-name="Rectangle 1447" class="cls-1" width="331.861" height="51.482" rx="25.741" transform="translate(1168.58 25.5)"/>
    </g>
    <path id="ic_search_24px" class="cls-9" d="M22.117,19.823H20.909l-.428-.413a9.956,9.956,0,1,0-1.071,1.071l.413.428v1.208l7.647,7.632,2.279-2.279Zm-9.176,0a6.882,6.882,0,1,1,6.882-6.882A6.873,6.873,0,0,1,12.941,19.823Z" transform="translate(1157.008 26.578)"/>
    <text id="_..._البحث_عن_رؤية" data-name="... البحث عن رؤية" class="cls-14" transform="translate(1458 47.196)"><tspan x="-99.08" y="0">...</tspan><tspan class="cls-15" y="0"> </tspan><tspan class="cls-15" y="0">البحث عن رؤية</tspan></text>
  </g>
</svg>
